<?xml version="1.0" encoding="UTF-8"?>
<svg id="Ebene_2" data-name="Ebene 2" xmlns="http://www.w3.org/2000/svg" viewBox="0 0 264.76 264.76">
  <defs>
    <style>
      .cls-1 {
        stroke-width: 4px;
      }

      .cls-1, .cls-2, .cls-3 {
        fill: none;
        stroke: #fff;
        stroke-miterlimit: 10;
      }

      .cls-2, .cls-3 {
        stroke-width: 3px;
      }

      .cls-4 {
        font-family: NotoSansCondensed-Bold, 'Noto Sans Condensed';
        font-size: 21.78px;
        font-weight: 700;
        letter-spacing: .54em;
      }

      .cls-4, .cls-5 {
        fill: #fff;
      }

      .cls-3 {
        stroke-linecap: round;
      }

      .cls-6 {
        fill: #d87b00;
      }
    </style>
  </defs>
  <g id="Logo-b-w-inv-col-circle-bg">
    <g id="Logo-circle">
      <circle class="cls-6" cx="132.38" cy="132.38" r="132.38"/>
    </g>
    <g id="Ebene_11" data-name="Ebene 11">
      <path class="cls-1" d="M195.87,70.68c-1.84-.08-3.62-.62-5.2-1.56-2.3-1.37-4.12-3.4-5.24-5.82-.64-1.39-1.04-2.88-1.17-4.4l-1.26-14.53c-.07-.75-.7-1.33-1.45-1.33h-113.2c-6.61,0-11.97,5.36-11.97,11.97v154.74c0,6.61,5.36,11.97,11.97,11.97h128.06c6.61,0,11.97-5.36,11.97-11.97V72.29c0-.8-.64-1.44-1.44-1.46l-11.08-.16Z"/>
      <rect class="cls-2" x="73.45" y="62.9" width="55.68" height="50.51" rx="1.22" ry="1.22"/>
      <path class="cls-5" d="M115.05,100.46c1.19,1.77,1.89,2.87,2.12,3.3.23.44.34.91.34,1.42-.07.41-.27.7-.58.87-.31.17-.58.25-.8.25-1.21-.07-2.25-.46-3.12-1.16-.9-.73-1.6-1.31-2.12-1.76-.52-.45-1.31-1.32-2.38-2.61-1.06-1.29-1.95-2.66-2.65-4.08-.05.19-.13.49-.24.89-.11.4-.2.76-.27,1.07l-.14.47c-.19.82-.86,1.23-2,1.23-.7,0-1.44-.25-2.21-.76l-.22,4.54,2.18.36c.29,0,.77-.05,1.45-.16.68-.11,1.1-.16,1.27-.16.85,0,1.33.21,1.45.62.02.14.1.65.22,1.52h-.87c-.1-.05-.2-.11-.31-.18-.11-.07-.21-.13-.31-.18-.1-.05-.21-.07-.33-.07-.14,0-.27.02-.38.05-.11.04-.24.1-.38.18s-.27.15-.36.2h-16.44c-.1-.05-.22-.12-.38-.22-.16-.1-.3-.17-.44-.22-.13-.05-.27-.07-.42-.07-.17,0-.36.08-.58.24-.22.16-.41.25-.58.27-.94,0-1.42-.27-1.42-.8,0-.36.26-.67.78-.93.52-.25,1.16-.38,1.91-.38.17,0,.49.04.96.11.47.07.9.13,1.29.18l.62.11c.15,0,.33,0,.56.02.23.01.39.02.49.02.6,0,1.32-.1,2.14-.29,1.04-3.8,1.56-5.76,1.56-5.88,0-1.62-.07-5.21-.22-10.78l-2.4-4.94c-.53-1.11-.85-2.5-.94-4.17-.1-1.67-.18-2.69-.25-3.05-.34-1.57-.7-2.36-1.09-2.36-.05,0-.2.02-.45.05s-.45.05-.6.05c-.19,0-.41,0-.65.02-.24.01-.48.02-.71.04-.23.01-.44.02-.64.04-.19.01-.35.03-.47.06h-.22c-.41,0-.62-.22-.62-.65,0-.24.11-.42.33-.54,1.89-1.06,3.19-1.7,3.9-1.91.71-.21,2.07-.31,4.08-.31h4.32c.17,0,.32.06.45.18.13.12.2.27.2.44v.07c.05.31.07.73.07,1.25s.03.99.09,1.42c.06.42.18.82.34,1.18.39.82.81,1.6,1.27,2.32.46.73.83,1.28,1.13,1.65s.86,1.08,1.71,2.12c.51.63,1.38,1.48,2.61,2.56,1.23,1.08,2.17,2.09,2.79,3.03,4.36,6.51,7.63,11.69,9.84,15.53.05.14.07.25.07.33,0,.17-.07.31-.2.44-.13.12-.28.18-.45.18-.12,0-.27-.06-.44-.18-.56-.56-1.32-1.25-2.29-2.07ZM94.29,81.59c0-.46.14-.83.44-1.11.29-.28.67-.42,1.13-.42.22,0,.48.04.78.13.3.09.57.13.82.13,1.14-.12,1.83-.23,2.07-.33.24-.1.52-.37.83-.83-.99-1.26-1.83-2.61-2.5-4.07-.19-.44-.33-.85-.4-1.23-.07-.39-.12-.86-.13-1.43-.01-.57-.03-.94-.05-1.11h-.07c-.48,0-1.13,0-1.92-.02-.8-.01-1.38-.02-1.74-.02-1.4,0-2.38.04-2.94.11-.56.07-1.21.27-1.96.58l-.04.04c.51-.07.83-.11.98-.11.41,0,.76.14,1.05.44.12.12.24.25.34.38s.21.28.29.44c.08.16.15.28.2.36.05.09.1.24.15.45.05.22.08.35.09.4.01.05.05.21.11.47.06.27.09.41.09.44.1.53.18,1.57.25,3.12.07,1.55.35,2.82.83,3.81l2.36,4.83c.92,1.89,1.84,3.71,2.76,5.46s1.84,3.45,2.76,5.1c.51.68.91,1.1,1.22,1.27.3.17.68.25,1.14.25.44,0,.7-.13.8-.4.44-1.77.74-3.09.91-3.96-.15-.31-.4-.83-.76-1.56-.94-.53-1.81-1.15-2.61-1.85-.34-.31-.66-.62-.96-.91-.3-.29-.6-.6-.91-.93-.3-.33-.56-.6-.76-.82-.21-.22-.46-.53-.76-.93-.3-.4-.52-.68-.65-.85-.13-.17-.36-.49-.69-.96-.33-.47-.54-.77-.64-.91-.1-.13-.34-.49-.73-1.07-.39-.58-.63-.94-.73-1.09-.29-.44-.44-.87-.44-1.31ZM92.76,72.55c.27-.24.58-.36.94-.36s.66.14.89.44c.23.29.34.63.34,1.02,0,.32-.15.56-.45.73-.3.17-.64.25-1,.25-.31,0-.58-.11-.8-.34-.22-.23-.33-.51-.33-.85s.13-.63.4-.87ZM95.52,99.59s-.1.45-.31,1.2c-.21.75-.42,1.52-.64,2.3-.22.79-.34,1.22-.36,1.29.58.17,1.09.28,1.52.33.1,0,.24,0,.42.02.18.01.31.02.38.02.65,0,1.29-.11,1.92-.33.63-.22.98-.33,1.05-.33l.18-3.27-4.17-1.23ZM101.18,80.24c-.31.31-.57.54-.78.69-.21.14-.58.29-1.11.44-.53.14-1.19.22-1.96.22-.24,0-.53-.04-.87-.13-.34-.08-.54-.13-.62-.13-.19,0-.29.09-.29.25s.07.37.22.62c.15.22.42.62.82,1.22s.67.98.8,1.16c.13.18.37.51.71,1,.34.48.59.83.74,1.03.16.21.4.5.73.89.33.39.62.71.87.98s.55.57.89.91c.34.34.7.68,1.09,1.02.9.82,2.24,1.7,4.05,2.63,1.8.93,3.21,1.76,4.23,2.49.6.44,1.28.92,2.03,1.45.75.53,1.39,1.01,1.92,1.42-1.31-2.42-3.7-6.23-7.19-11.43-.58-.85-1.47-1.8-2.67-2.87-1.2-1.06-2.09-1.95-2.67-2.65l-.94-1.2ZM95.59,90.37c.1,3.53.15,6.18.15,7.95l4.03,1.2.04-1.23c-.17-.31-.33-.61-.49-.89-.16-.28-.34-.6-.54-.96s-.44-.78-.69-1.25c-.25-.47-.51-.96-.78-1.45-.27-.5-.55-1.04-.85-1.63-.3-.59-.59-1.17-.85-1.72ZM106.26,94.62c.92,1.91,1.89,3.56,2.92,4.95,1.03,1.39,2.57,2.92,4.63,4.59.89.7,1.56,1.05,2,1.05.12,0,.22-.02.29-.07.07-.05.12-.1.14-.14l.04-.04c-.15-.41-.32-.79-.53-1.12s-.47-.73-.78-1.18c-.31-.45-.58-.85-.8-1.22l-1.96-3.16-2.29-1.78c-.9-.68-2.11-1.4-3.63-2.18l-.04.29Z"/>
      <path class="cls-2" d="M189.41,77.13c-1.84-.08-3.62-.62-5.2-1.56-2.3-1.37-4.12-3.4-5.24-5.82-.64-1.39-1.04-2.88-1.17-4.4l-.13-1.49c-.05-.54-.5-.95-1.04-.95h-39.81c-.67,0-1.22.55-1.22,1.22v48.07c0,.67.55,1.22,1.22,1.22h53.24c.67,0,1.22-.55,1.22-1.22v-34.01c0-.57-.46-1.03-1.03-1.04h-.84Z"/>
      <path class="cls-5" d="M150.63,95.78c-.07-.12-.11-.25-.11-.4,0-.19.08-.37.25-.55.39-.34,1.23-1.06,2.52-2.16,1.29-1.1,2.35-2.05,3.18-2.85.77-.75,1.85-1.92,3.23-3.52,1.38-1.6,2.63-2.89,3.74-3.88.15-.12.41-.36.8-.73.39-.36.65-.6.78-.73.13-.12.36-.33.69-.62.33-.29.57-.49.73-.6.16-.11.39-.28.69-.51.3-.23.57-.41.82-.54.24-.13.53-.28.85-.45.33-.17.66-.33,1-.47.94-.39,2-.58,3.16-.58.15,0,.36,0,.65.02.29.01.51.02.65.02.24,0,.68-.02,1.31-.07h.07c.22,0,.4.07.54.22.12.17.18.33.18.47v.18c-.12.61-.25,1.31-.4,2.12-.14.81-.28,1.54-.42,2.2-.13.65-.31,1.36-.53,2.11-.15.51-.37,1.45-.67,2.81-.3,1.37-.62,2.46-.94,3.28-.33.82-.82,1.68-1.47,2.58-.77,1.09-1.6,1.9-2.49,2.43-.88.53-2.14,1.09-3.76,1.67-.97.36-2.24.56-3.81.6-1.57.04-2.58.09-3.01.16-.15.02-1.98.41-5.52,1.16h-.18c-.24,0-.44-.11-.58-.33l-1.96-3.05ZM153.53,97.63c2.95-.63,4.66-.98,5.12-1.05.7-.1,1.74-.16,3.12-.18,1.38-.02,2.52-.19,3.41-.51,1.02-.39,1.78-.69,2.29-.91.51-.22,1.07-.56,1.69-1.02.62-.46,1.16-1.02,1.62-1.67.58-.82,1.02-1.61,1.32-2.36.3-.75.59-1.77.87-3.05.28-1.28.5-2.23.67-2.83.19-.7.56-2.5,1.09-5.41-.1.02-.25.04-.47.04-.17,0-.4,0-.69-.02-.29-.01-.5-.02-.62-.02-.99,0-1.86.16-2.61.47-.41.19-.82.4-1.22.62-.4.22-.71.39-.93.53-.22.13-.55.38-1,.73-.45.35-.72.57-.82.65-.1.09-.43.39-1,.91-.57.52-.9.83-1,.93-1.02.92-2.2,2.17-3.56,3.74-1.36,1.57-2.47,2.78-3.34,3.63-.51.48-2.27,2.04-5.3,4.68l1.34,2.11ZM163.55,89.83c-.14.17-.31.47-.51.89-.19.42-.31.68-.36.78-.07.1-.25.57-.54,1.42.15-.02.39-.04.73-.04h.04c.19,0,.36.07.51.2.14.13.22.3.22.49v.04c0,.19-.07.36-.2.49-.13.13-.3.2-.49.2-.92.05-1.49.07-1.71.07-.07,0-.19.01-.36.04-.17.02-.3.04-.4.04-.31,0-.61-.07-.87-.22-.46-.22-.69-.6-.69-1.16,0-.02,0-.09.02-.2.01-.11.02-.17.02-.2.12-.41.46-.96,1.02-1.63,1.16-1.45,2.24-2.67,3.23-3.67,1.38-1.4,2.59-2.5,3.63-3.3l4.54-3.34c.12-.12.28-.18.47-.18.22,0,.4.07.54.22.12.17.18.34.18.51,0,.22-.09.4-.25.54l-4.5,3.34c-.31.24-.63.52-.94.83-.31.32-.64.66-.98,1.03-.34.38-.58.64-.73.78l-1.6,2.03Z"/>
      <rect class="cls-2" x="73.48" y="119.86" width="55.68" height="50.51" rx="1.22" ry="1.22"/>
      <path class="cls-5" d="M85.85,127.48c.15-.22.35-.33.62-.33h.04c.24,0,.44.1.58.29l1.89,2.9,1.74-2.9c.15-.24.35-.36.62-.36s.47.11.62.33l1.89,2.94,1.78-2.9c.15-.24.35-.36.62-.36s.47.11.62.33l1.89,2.94,1.81-2.94c.14-.24.35-.36.62-.36s.47.11.62.33l1.89,2.9,1.74-2.87c.15-.22.34-.33.58-.33h.04c.27,0,.46.1.58.29l1.92,2.94,1.78-2.9c.14-.24.35-.36.62-.36s.47.11.62.33l1.89,2.9,1.74-2.9c.15-.22.35-.33.62-.33s.46.11.58.33l2.5,3.81c.07.1.11.23.11.4,0,.27-.1.47-.29.62-.15.07-.28.11-.4.11-.27,0-.47-.11-.62-.33l-1.85-2.87-1.78,2.9c-.17.24-.38.36-.62.36-.36,0-.59-.17-.69-.51l-1.78-2.76-1.78,2.9c-.17.24-.38.36-.62.36-.29,0-.51-.12-.65-.36l-1.85-2.9-1.78,2.94c-.14.22-.35.33-.62.33-.17,0-.3-.04-.4-.11-.12-.07-.23-.22-.33-.44l-1.74-2.72-1.78,2.9c-.17.24-.38.36-.62.36-.29,0-.52-.12-.69-.36l-1.85-2.87-1.78,2.9c-.17.24-.38.36-.62.36s-.45-.12-.62-.36l-.04-.04-1.85-2.87-1.78,2.9c-.17.24-.38.36-.62.36-.27,0-.46-.11-.58-.33h-.04l-1.85-2.9-1.78,2.94c-.12.22-.33.33-.62.33-.19,0-.36-.07-.51-.22-.15-.15-.22-.31-.22-.51,0-.12.04-.24.11-.36l2.36-3.88ZM86.07,142.94c.14-.19.35-.31.62-.36h.04c.24,0,.44.11.58.33l1.89,2.87,1.74-2.9c.15-.22.35-.33.62-.33s.47.11.62.33l1.89,2.9,1.78-2.9c.15-.22.35-.33.62-.33s.47.11.62.33l1.89,2.94,1.81-2.98c.14-.22.35-.33.62-.33.29,0,.48.11.58.33l1.92,2.9,1.74-2.87c.1-.19.29-.31.58-.36h.04c.29,0,.48.11.58.33l1.92,2.94,1.78-2.94c.14-.22.35-.33.62-.33s.47.11.62.33l1.89,2.9,1.74-2.9c.15-.22.34-.33.58-.33h.04c.27,0,.46.11.58.33l2.5,3.81c.07.1.11.23.11.4,0,.27-.1.47-.29.62-.15.07-.29.11-.44.11-.24,0-.44-.11-.58-.33l-1.85-2.87-1.78,2.9c-.14.22-.35.33-.62.33-.36,0-.59-.16-.69-.47l-1.78-2.76-1.78,2.9c-.17.24-.38.36-.62.36-.29,0-.51-.12-.65-.36l-1.85-2.9-1.78,2.94c-.15.22-.35.33-.62.33-.17,0-.3-.04-.4-.11-.15-.1-.25-.24-.33-.44l-1.74-2.72-1.78,2.9c-.17.24-.38.36-.62.36-.29,0-.52-.12-.69-.36l-1.85-2.87-1.78,2.9c-.17.24-.38.36-.62.36s-.45-.12-.62-.36l-.04-.04-1.85-2.87-1.78,2.9c-.17.24-.38.36-.62.36-.27,0-.46-.11-.58-.33h-.04l-1.85-2.9-1.78,2.94c-.12.22-.33.33-.62.33-.19,0-.36-.07-.51-.22s-.22-.31-.22-.51c0-.12.04-.24.11-.36l2.36-3.88ZM86.14,158.22c.12-.24.31-.36.58-.36h.04c.24,0,.44.11.58.33l1.89,2.87,1.74-2.9c.15-.22.35-.33.62-.33s.47.1.62.29l1.89,2.94,1.78-2.9c.15-.22.35-.33.62-.33s.47.1.62.29l1.89,2.94,1.81-2.94c.14-.22.35-.33.62-.33s.47.1.62.29l1.89,2.94,1.74-2.87c.17-.24.36-.36.58-.36h.04c.27,0,.46.11.58.33l1.92,2.94,1.78-2.94c.14-.22.35-.33.62-.33s.47.1.62.29l1.89,2.9,1.74-2.87c.15-.22.35-.34.62-.36.29,0,.48.11.58.33l2.5,3.85c.07.1.11.23.11.4,0,.24-.1.44-.29.58-.19.1-.33.15-.4.15-.24,0-.45-.11-.62-.33l-1.85-2.9-1.78,2.94c-.14.22-.35.33-.62.33-.36,0-.59-.17-.69-.51l-1.78-2.76-1.78,2.94c-.15.22-.35.33-.62.33-.31,0-.53-.12-.65-.36l-1.85-2.87-1.78,2.9c-.17.24-.38.36-.62.36-.12,0-.25-.04-.4-.11-.15-.12-.25-.27-.33-.44l-1.74-2.76-1.78,2.94c-.15.22-.35.33-.62.33-.31,0-.54-.11-.69-.33l-1.85-2.9-1.78,2.94c-.15.22-.35.33-.62.33s-.47-.11-.62-.33c0-.02-.01-.04-.04-.04l-1.85-2.9-1.78,2.94c-.14.22-.35.33-.62.33s-.46-.11-.58-.33h-.04l-1.85-2.87-1.78,2.9c-.12.24-.33.36-.62.36-.19,0-.36-.07-.51-.22-.15-.15-.22-.31-.22-.51,0-.14.04-.27.11-.36l2.4-3.88Z"/>
      <rect class="cls-2" x="135.61" y="119.86" width="55.68" height="50.51" rx="1.22" ry="1.22"/>
      <path class="cls-5" d="M165.49,155.75c-2.2,0-3.3-1.08-3.3-3.23,0-.73.17-1.69.51-2.9l-.73-.14c-.31-.1-.47-.33-.47-.69s.21-.57.62-.62h1.89c.19-.24.44-.6.73-1.09v-14.74c-.02-.36-.09-.71-.18-1.05-.1-.34-.28-.75-.56-1.23-.28-.48-.74-.88-1.4-1.18-.65-.3-1.46-.45-2.43-.45-1.28,0-2.4.36-3.36,1.09-.96.73-1.43,1.65-1.43,2.76v12.34h3.92c.48,0,.73.24.73.73v17.24c0,.46-.24.69-.73.69h-9.62c-.19,0-.36-.07-.51-.2s-.22-.3-.22-.49v-17.24c0-.22.07-.39.22-.53.15-.13.31-.2.51-.2h4.28v-12.34c0-1.52.62-2.79,1.85-3.79,1.23-1,2.69-1.51,4.36-1.51.24,0,.52.02.83.05.31.04.8.15,1.45.34.65.19,1.23.47,1.72.82.5.35.95.89,1.36,1.61.41.73.63,1.57.65,2.54v12.05c.65-1.16,1.59-2.17,2.81-3.01,1.22-.85,2.35-1.43,3.39-1.74v-4.36c-.22-.17-.47-.38-.76-.63-.29-.25-.7-.65-1.23-1.18-.53-.53-.97-1.11-1.32-1.74-.35-.63-.53-1.22-.53-1.78,0-.65.13-1.14.4-1.47.27-.33.56-.49.87-.49.39,0,.79.17,1.2.51,0-.19.04-.38.11-.56.07-.18.3-.38.67-.6.37-.22.9-.33,1.58-.33.6,0,1.08.11,1.43.34.35.23.55.43.6.6.05.17.07.33.07.47.46-.31.86-.47,1.2-.47.44,0,.76.21.96.62s.31.88.31,1.42c0,1.43-1.23,3.17-3.7,5.23l-.04.04v4.17c.07,0,.25-.04.53-.11.28-.07.49-.11.63-.11,1.26,0,1.89.6,1.89,1.81,0,1.33-1.02,2.36-3.05,3.09v18.29c0,.24-.09.45-.25.62-.17.17-.38.25-.62.25-.27,0-.49-.08-.67-.25-.18-.17-.27-.37-.27-.62v-17.71c-.82.27-1.49.6-2.01,1.02-.52.41-1.42,1.26-2.7,2.54h1.16c.36,0,.57.18.62.54,0,.36-.16.59-.47.69l-.73.18c.34,1.21.51,2.17.51,2.87,0,.41-.02.74-.07,1-.05.25-.16.58-.33.98-.17.4-.5.71-.98.93-.48.22-1.11.33-1.89.33ZM150.4,146.06v15.79h8.17v-15.79h-8.17ZM154.35,147.44c.73,0,1.35.27,1.87.8.52.53.78,1.16.78,1.89s-.25,1.31-.74,1.81c-.5.51-1.09.76-1.8.76s-1.34-.25-1.83-.76c-.5-.51-.74-1.12-.74-1.85s.24-1.35.71-1.87c.47-.52,1.06-.78,1.76-.78ZM154.42,153.65c.73,0,1.34.27,1.85.8.51.53.76,1.17.76,1.92,0,.7-.25,1.31-.74,1.81-.5.51-1.09.76-1.8.76s-1.31-.26-1.81-.78c-.51-.52-.76-1.14-.76-1.87s.24-1.35.73-1.87c.48-.52,1.08-.78,1.78-.78ZM155.46,149.02c-.3-.3-.66-.45-1.07-.45s-.76.15-1.03.45c-.28.3-.42.66-.42,1.07s.14.77.44,1.07c.29.3.64.45,1.05.45s.76-.14,1.05-.44c.29-.29.44-.64.44-1.05,0-.44-.15-.8-.45-1.11ZM166.91,149.47h-2.9c-.02.14-.09.41-.18.8-.1.39-.18.78-.25,1.18-.07.4-.11.76-.11,1.07,0,.65.15,1.14.45,1.47.3.33.82.49,1.54.49.39,0,.69-.02.91-.05.22-.04.46-.21.73-.53.27-.31.4-.77.4-1.38,0-.31-.04-.66-.11-1.03-.07-.37-.16-.79-.27-1.25-.11-.46-.18-.71-.2-.76ZM166.18,147.08v.87c.29-.29.68-.69,1.18-1.22.5-.52.94-.96,1.34-1.32.4-.36.86-.71,1.4-1.05.58-.39,1.34-.73,2.29-1.02v-2.36c-.97.34-2.02.94-3.16,1.81-.22.17-.42.34-.62.53-.19.18-.38.39-.56.62-.18.23-.33.41-.44.55-.11.13-.25.35-.42.65-.17.3-.28.5-.33.58-.05.09-.17.32-.36.71s-.3.6-.33.65ZM173.26,134.48c2.4-1.91,3.59-3.44,3.59-4.57,0-.43-.07-.73-.22-.87-.44.14-.8.41-1.09.8-.29.39-.5.76-.62,1.13-.12.36-.32.69-.6.98-.28.29-.65.44-1.11.44s-.84-.14-1.14-.44c-.3-.29-.51-.61-.64-.96-.12-.35-.32-.71-.6-1.09-.28-.37-.61-.63-1-.78-.14.07-.22.35-.22.83,0,.19.01.34.04.44.1.36.27.74.53,1.12.25.39.55.75.89,1.09.34.34.65.63.93.87.28.24.55.47.82.69l.44.33ZM173.52,128.1c-.31,0-.56.01-.73.04-.17.02-.34.14-.53.36-.18.22-.27.55-.27.98.77,1.21,1.19,1.84,1.23,1.89.17-.19.36-.45.56-.76.21-.31.37-.59.51-.82.13-.23.2-.36.2-.38-.02-.63-.09-1-.18-1.12-.1-.12-.36-.18-.8-.18ZM174.2,140.58v2.18c1.19-.48,1.78-1.08,1.78-1.78,0-.19-.03-.33-.09-.4-.06-.07-.24-.11-.53-.11-.24,0-.63.04-1.16.11Z"/>
      <line class="cls-3" x1="73.48" y1="182.44" x2="191.28" y2="182.44"/>
      <text class="cls-4" transform="translate(102.66 210.62)"><tspan x="0" y="0">089</tspan></text>
      <polyline class="cls-1" points="183.51 50.27 193.25 50.27 203.36 60.39 203.36 70.79"/>
    </g>
  </g>
</svg>