<?xml version="1.0" encoding="UTF-8"?>
<svg id="Ebene_2" data-name="Ebene 2" xmlns="http://www.w3.org/2000/svg" viewBox="0 0 192.46 225.53">
  <defs>
    <style>
      .cls-1 {
        font-family: NotoSansCondensed-Bold, 'Noto Sans Condensed';
        font-size: 27px;
        font-weight: 700;
        letter-spacing: .54em;
      }

      .cls-2 {
        stroke-linecap: round;
      }

      .cls-2, .cls-3, .cls-4 {
        fill: none;
        stroke: #000;
        stroke-miterlimit: 10;
      }

      .cls-2, .cls-4 {
        stroke-width: 3px;
      }

      .cls-3 {
        stroke-width: 4px;
      }
    </style>
  </defs>
  <g id="Logo-b-w-transp">
    <path class="cls-3" d="M174.94,36.27c-2.28-.1-4.49-.76-6.45-1.93-2.85-1.7-5.11-4.21-6.5-7.22-.8-1.72-1.29-3.57-1.45-5.46l-1.56-18.01c-.08-.93-.86-1.65-1.8-1.65H16.84c-8.2,0-14.84,6.64-14.84,14.84v191.86c0,8.2,6.64,14.84,14.84,14.84h158.78c8.2,0,14.84-6.64,14.84-14.84V38.27c0-.99-.79-1.79-1.78-1.8l-13.73-.2Z"/>
    <rect class="cls-4" x="23.17" y="26.63" width="69.03" height="62.62" rx="1.51" ry="1.51"/>
    <path d="M74.74,73.19c1.47,2.19,2.35,3.55,2.63,4.09.28.54.43,1.12.43,1.76-.09.51-.33.87-.72,1.08-.39.21-.72.32-.99.32-1.5-.09-2.79-.57-3.87-1.44-1.11-.9-1.99-1.63-2.63-2.18-.65-.56-1.63-1.63-2.95-3.24-1.32-1.6-2.42-3.29-3.28-5.06-.06.24-.16.61-.29,1.1-.14.5-.25.94-.34,1.33l-.18.58c-.24,1.02-1.07,1.53-2.48,1.53-.87,0-1.79-.32-2.75-.95l-.27,5.62,2.7.45c.36,0,.96-.07,1.8-.2.84-.14,1.36-.2,1.58-.2,1.05,0,1.65.26,1.8.77.03.18.12.81.27,1.89h-1.08c-.12-.06-.25-.13-.38-.22-.13-.09-.26-.17-.38-.23-.12-.06-.26-.09-.41-.09-.18,0-.34.02-.47.07-.14.04-.29.12-.47.23s-.33.19-.45.25h-20.38c-.12-.06-.28-.15-.47-.27-.2-.12-.38-.21-.54-.27-.17-.06-.34-.09-.52-.09-.21,0-.45.1-.72.29-.27.2-.51.31-.72.34-1.17,0-1.75-.33-1.75-.99,0-.45.32-.83.97-1.15.65-.31,1.43-.47,2.36-.47.21,0,.61.04,1.19.14.58.09,1.12.17,1.6.22l.76.13c.18,0,.41,0,.7.02.28.02.49.02.61.02.75,0,1.63-.12,2.66-.36,1.29-4.71,1.93-7.14,1.93-7.29,0-2.01-.09-6.46-.27-13.37l-2.97-6.12c-.66-1.38-1.05-3.1-1.17-5.17-.12-2.07-.23-3.33-.31-3.78-.42-1.95-.87-2.92-1.35-2.92-.06,0-.25.02-.56.07s-.56.07-.74.07c-.24,0-.51,0-.81.02-.3.02-.59.03-.88.04-.29.02-.55.03-.79.04-.24.02-.44.04-.58.07h-.27c-.51,0-.76-.27-.76-.81,0-.3.13-.52.4-.67,2.34-1.32,3.95-2.11,4.84-2.36.88-.25,2.57-.38,5.06-.38h5.35c.21,0,.4.08.56.22.16.15.25.33.25.54v.09c.06.39.09.91.09,1.55s.04,1.23.11,1.75c.07.53.22,1.01.43,1.46.48,1.02,1,1.98,1.58,2.88.57.9,1.04,1.58,1.4,2.05s1.06,1.34,2.12,2.63c.63.78,1.71,1.84,3.24,3.17,1.53,1.33,2.68,2.59,3.46,3.76,5.4,8.07,9.46,14.49,12.2,19.26.06.18.09.32.09.41,0,.21-.08.39-.25.54-.17.15-.35.22-.56.22-.15,0-.33-.07-.54-.22-.69-.69-1.64-1.54-2.83-2.57ZM49,49.79c0-.57.18-1.03.54-1.37.36-.34.82-.52,1.4-.52.27,0,.59.05.97.16.37.11.71.16,1.01.16,1.41-.15,2.26-.29,2.56-.41.3-.12.64-.46,1.03-1.04-1.23-1.56-2.27-3.24-3.1-5.04-.24-.54-.4-1.05-.49-1.53-.09-.48-.14-1.07-.16-1.78-.02-.7-.04-1.16-.07-1.37h-.09c-.6,0-1.4,0-2.38-.02-.99-.01-1.71-.02-2.16-.02-1.74,0-2.96.04-3.65.13-.69.09-1.5.33-2.43.72l-.04.04c.63-.09,1.03-.13,1.21-.13.51,0,.94.18,1.3.54.15.15.29.31.43.47s.25.34.36.54c.1.2.19.34.25.45.06.11.12.29.18.56.06.27.1.43.11.5.01.06.06.25.14.58.07.33.11.51.11.54.12.66.23,1.95.31,3.87.09,1.92.43,3.5,1.04,4.73l2.92,5.99c1.14,2.34,2.28,4.6,3.42,6.77s2.28,4.28,3.42,6.32c.63.84,1.13,1.37,1.51,1.58.37.21.85.31,1.42.31.54,0,.87-.16.99-.5.54-2.19.91-3.83,1.12-4.9-.18-.39-.5-1.04-.95-1.94-1.17-.66-2.25-1.42-3.24-2.29-.42-.39-.82-.76-1.19-1.12-.38-.36-.75-.74-1.12-1.15-.38-.41-.69-.74-.94-1.01-.26-.27-.57-.65-.94-1.15-.38-.5-.65-.85-.81-1.06-.17-.21-.45-.61-.85-1.19-.41-.58-.67-.96-.79-1.12-.12-.16-.42-.61-.9-1.33-.48-.72-.78-1.17-.9-1.35-.36-.54-.54-1.08-.54-1.62ZM47.11,38.59c.33-.3.72-.45,1.17-.45s.82.18,1.1.54c.28.36.43.78.43,1.26,0,.39-.19.69-.56.9-.38.21-.79.31-1.24.31-.39,0-.72-.14-.99-.43-.27-.28-.41-.64-.41-1.06s.16-.78.5-1.08ZM50.53,72.11c0,.06-.13.56-.38,1.49-.26.93-.52,1.88-.79,2.86-.27.98-.42,1.51-.45,1.6.72.21,1.35.34,1.89.4.12,0,.29,0,.52.02.23.01.38.02.47.02.81,0,1.6-.14,2.38-.41.78-.27,1.21-.41,1.31-.41l.22-4.05-5.17-1.53ZM57.55,48.13c-.39.39-.71.67-.97.85-.26.18-.71.36-1.37.54-.66.18-1.47.27-2.43.27-.3,0-.66-.05-1.08-.16-.42-.1-.67-.16-.76-.16-.24,0-.36.11-.36.32s.09.46.27.76c.18.27.52.77,1.01,1.51s.82,1.21.99,1.44c.16.23.46.64.88,1.24.42.6.73,1.03.92,1.28.19.25.49.62.9,1.1.4.48.77.88,1.08,1.21s.68.71,1.1,1.12c.42.42.87.84,1.35,1.26,1.11,1.02,2.78,2.11,5.02,3.26,2.23,1.16,3.98,2.18,5.24,3.08.75.54,1.59,1.14,2.52,1.8.93.66,1.72,1.25,2.38,1.76-1.62-3-4.59-7.72-8.91-14.18-.72-1.05-1.82-2.23-3.31-3.55-1.48-1.32-2.59-2.41-3.31-3.29l-1.17-1.48ZM50.62,60.68c.12,4.38.18,7.67.18,9.85l5,1.49.04-1.53c-.21-.39-.41-.76-.61-1.1-.2-.34-.42-.74-.68-1.19s-.54-.97-.85-1.55c-.31-.58-.64-1.18-.97-1.8-.33-.61-.68-1.29-1.06-2.02-.38-.74-.73-1.45-1.06-2.14ZM63.85,65.95c1.14,2.37,2.35,4.42,3.62,6.14,1.27,1.73,3.19,3.62,5.74,5.69,1.11.87,1.94,1.31,2.48,1.31.15,0,.27-.03.36-.09.09-.06.15-.12.18-.18l.05-.04c-.18-.51-.4-.97-.65-1.39s-.58-.91-.97-1.46c-.39-.55-.72-1.06-.99-1.51l-2.43-3.92-2.83-2.21c-1.11-.84-2.61-1.74-4.5-2.7l-.05.36Z"/>
    <path class="cls-4" d="M166.94,44.27c-2.28-.1-4.49-.76-6.45-1.93-2.85-1.7-5.11-4.21-6.5-7.22-.8-1.72-1.29-3.57-1.45-5.46l-.16-1.85c-.06-.67-.62-1.18-1.29-1.18h-49.36c-.83,0-1.51.68-1.51,1.51v59.6c0,.83.68,1.51,1.51,1.51h66.01c.83,0,1.51-.68,1.51-1.51v-42.16c0-.71-.57-1.28-1.27-1.29h-1.04Z"/>
    <path d="M118.86,67.39c-.09-.15-.13-.32-.13-.5,0-.24.1-.46.31-.68.48-.42,1.52-1.31,3.13-2.68,1.6-1.37,2.92-2.54,3.94-3.53.96-.93,2.29-2.38,4-4.36,1.71-1.98,3.25-3.58,4.64-4.82.18-.15.51-.45.99-.9.48-.45.8-.75.97-.9.16-.15.45-.41.85-.76.4-.36.7-.61.9-.74.19-.13.48-.34.85-.63.38-.28.71-.51,1.01-.67.3-.17.65-.35,1.06-.56.4-.21.82-.41,1.24-.58,1.17-.48,2.48-.72,3.92-.72.18,0,.45,0,.81.02.36.01.63.02.81.02.3,0,.84-.03,1.62-.09h.09c.27,0,.49.09.67.27.15.21.23.41.23.58v.22c-.15.75-.31,1.63-.5,2.63-.18,1.01-.35,1.91-.52,2.72-.17.81-.38,1.68-.65,2.61-.18.63-.46,1.79-.83,3.49-.38,1.7-.77,3.05-1.17,4.07-.41,1.02-1.01,2.09-1.82,3.2-.96,1.35-1.99,2.36-3.08,3.01-1.1.66-2.65,1.35-4.66,2.07-1.2.45-2.78.7-4.73.74-1.95.04-3.19.11-3.73.2-.18.03-2.46.51-6.84,1.44h-.22c-.3,0-.54-.13-.72-.41l-2.43-3.78ZM122.46,69.68c3.66-.78,5.77-1.22,6.35-1.31.87-.12,2.16-.19,3.87-.22,1.71-.03,3.12-.24,4.23-.63,1.26-.48,2.2-.86,2.83-1.12.63-.27,1.33-.69,2.09-1.26.77-.57,1.43-1.26,2-2.07.72-1.02,1.27-2,1.64-2.92.38-.93.73-2.19,1.08-3.78.34-1.59.62-2.76.83-3.51.24-.87.69-3.11,1.35-6.71-.12.03-.31.04-.58.04-.21,0-.5,0-.85-.02-.36-.01-.62-.02-.77-.02-1.23,0-2.31.2-3.24.58-.51.24-1.01.5-1.51.76-.5.27-.88.49-1.15.65-.27.17-.68.47-1.24.9-.56.44-.89.71-1.01.81-.12.11-.53.48-1.24,1.12-.71.65-1.12,1.03-1.24,1.15-1.26,1.14-2.73,2.69-4.41,4.64s-3.06,3.45-4.14,4.5c-.63.6-2.82,2.54-6.57,5.8l1.67,2.61ZM134.88,60.01c-.18.21-.39.58-.63,1.1-.24.53-.39.85-.45.97-.09.12-.32.71-.68,1.75.18-.03.48-.04.9-.04h.05c.24,0,.45.08.63.25.18.17.27.37.27.61v.04c0,.24-.08.44-.25.61-.17.17-.37.25-.61.25-1.14.06-1.85.09-2.12.09-.09,0-.24.02-.45.05-.21.03-.38.04-.5.04-.39,0-.75-.09-1.08-.27-.57-.27-.85-.75-.85-1.44,0-.03,0-.11.02-.25.01-.13.02-.22.02-.25.15-.51.57-1.19,1.26-2.03,1.44-1.8,2.77-3.31,4-4.54,1.71-1.74,3.21-3.11,4.5-4.09l5.62-4.14c.15-.15.34-.22.58-.22.27,0,.5.09.67.27.15.21.23.42.23.63,0,.27-.11.49-.31.67l-5.58,4.14c-.39.3-.78.65-1.17,1.04-.39.39-.8.82-1.21,1.28-.42.47-.72.79-.9.97l-1.98,2.52Z"/>
    <rect class="cls-4" x="23.2" y="97.25" width="69.03" height="62.62" rx="1.51" ry="1.51"/>
    <path d="M38.54,106.69c.18-.27.43-.41.77-.41h.04c.3,0,.54.12.72.36l2.34,3.6,2.16-3.6c.18-.3.43-.45.77-.45s.58.13.77.4l2.34,3.65,2.21-3.6c.18-.3.43-.45.77-.45s.58.13.76.4l2.34,3.65,2.25-3.65c.18-.3.43-.45.76-.45s.58.13.77.4l2.34,3.6,2.16-3.56c.18-.27.42-.4.72-.4h.04c.33,0,.57.12.72.36l2.39,3.65,2.21-3.6c.18-.3.43-.45.76-.45s.59.13.77.4l2.34,3.6,2.16-3.6c.18-.27.43-.4.77-.4s.57.13.72.4l3.1,4.73c.09.12.14.29.14.5,0,.33-.12.58-.36.76-.18.09-.35.13-.5.13-.33,0-.58-.13-.77-.41l-2.29-3.55-2.21,3.6c-.21.3-.47.45-.77.45-.45,0-.74-.21-.85-.63l-2.2-3.42-2.21,3.6c-.21.3-.47.45-.77.45-.36,0-.63-.15-.81-.45l-2.29-3.6-2.21,3.64c-.18.27-.44.41-.77.41-.21,0-.38-.04-.49-.13-.15-.09-.29-.27-.41-.54l-2.16-3.38-2.21,3.6c-.21.3-.47.45-.77.45-.36,0-.65-.15-.85-.45l-2.29-3.55-2.21,3.6c-.21.3-.47.45-.77.45s-.56-.15-.76-.45l-.05-.04-2.29-3.55-2.21,3.6c-.21.3-.47.45-.76.45-.33,0-.57-.13-.72-.41h-.04l-2.29-3.6-2.21,3.65c-.15.27-.41.4-.77.4-.24,0-.45-.09-.63-.27-.18-.18-.27-.39-.27-.63,0-.15.04-.3.13-.45l2.93-4.81ZM38.81,125.86c.18-.24.43-.39.77-.45h.04c.3,0,.54.13.72.4l2.34,3.56,2.16-3.6c.18-.27.43-.41.77-.41s.58.14.77.41l2.34,3.6,2.21-3.6c.18-.27.43-.41.77-.41s.58.14.76.41l2.34,3.65,2.25-3.69c.18-.27.43-.41.76-.41.36,0,.6.14.72.41l2.38,3.6,2.16-3.56c.12-.24.36-.39.72-.45h.04c.36,0,.6.14.72.41l2.39,3.65,2.21-3.65c.18-.27.43-.41.76-.41s.58.14.77.41l2.34,3.6,2.16-3.6c.18-.27.42-.41.72-.41h.04c.33,0,.57.14.72.41l3.1,4.73c.09.12.14.29.14.49,0,.33-.12.58-.36.77-.18.09-.36.13-.54.13-.3,0-.54-.13-.72-.41l-2.29-3.55-2.21,3.6c-.18.27-.44.41-.77.41-.45,0-.74-.19-.85-.58l-2.2-3.42-2.21,3.6c-.21.3-.47.45-.77.45-.36,0-.63-.15-.81-.45l-2.29-3.6-2.21,3.64c-.18.27-.44.41-.77.41-.21,0-.38-.04-.49-.13-.18-.12-.31-.3-.41-.54l-2.16-3.38-2.21,3.6c-.21.3-.47.45-.77.45-.36,0-.65-.15-.85-.45l-2.29-3.55-2.21,3.6c-.21.3-.47.45-.77.45s-.56-.15-.77-.45l-.04-.04-2.29-3.55-2.21,3.6c-.21.3-.47.45-.76.45-.33,0-.57-.13-.72-.4h-.04l-2.29-3.6-2.21,3.65c-.15.27-.41.4-.77.4-.24,0-.45-.09-.63-.27s-.27-.39-.27-.63c0-.15.04-.3.13-.45l2.93-4.82ZM38.9,144.81c.15-.3.39-.45.72-.45h.04c.3,0,.54.13.72.41l2.34,3.55,2.16-3.6c.18-.27.43-.41.77-.41s.58.12.77.36l2.34,3.64,2.21-3.6c.18-.27.43-.41.77-.41s.58.12.76.36l2.34,3.64,2.25-3.64c.18-.27.43-.41.77-.41s.58.12.76.36l2.34,3.64,2.16-3.55c.21-.3.45-.45.72-.45h.04c.33,0,.57.13.72.41l2.38,3.64,2.21-3.64c.18-.27.43-.41.77-.41s.58.12.76.36l2.34,3.6,2.16-3.55c.18-.27.43-.42.77-.45.36,0,.6.13.72.41l3.1,4.77c.09.12.13.29.13.5,0,.3-.12.54-.36.72-.24.12-.41.18-.5.18-.3,0-.56-.14-.77-.41l-2.29-3.6-2.21,3.64c-.18.27-.44.41-.76.41-.45,0-.74-.21-.85-.63l-2.21-3.42-2.21,3.64c-.18.27-.44.41-.77.41-.39,0-.66-.15-.81-.45l-2.29-3.55-2.21,3.6c-.21.3-.47.45-.76.45-.15,0-.32-.04-.5-.13-.18-.15-.31-.33-.41-.54l-2.16-3.42-2.21,3.64c-.18.27-.44.41-.77.41-.39,0-.67-.13-.85-.41l-2.29-3.6-2.21,3.64c-.18.27-.44.41-.77.41s-.58-.13-.76-.41c0-.03-.02-.04-.05-.04l-2.29-3.6-2.21,3.64c-.18.27-.44.41-.76.41s-.57-.13-.72-.41h-.04l-2.29-3.55-2.21,3.6c-.15.3-.4.45-.77.45-.24,0-.45-.09-.63-.27-.18-.18-.27-.39-.27-.63,0-.18.04-.33.14-.45l2.97-4.82Z"/>
    <rect class="cls-4" x="100.23" y="97.25" width="69.03" height="62.62" rx="1.51" ry="1.51"/>
    <path d="M137.28,141.75c-2.73,0-4.1-1.33-4.1-4,0-.9.21-2.1.63-3.6l-.9-.18c-.39-.12-.58-.41-.58-.86s.25-.7.77-.76h2.34c.24-.3.54-.75.9-1.35v-18.27c-.03-.45-.11-.88-.23-1.3-.12-.42-.35-.93-.7-1.53-.35-.6-.92-1.09-1.73-1.46-.81-.38-1.82-.56-3.02-.56-1.59,0-2.98.45-4.16,1.35-1.19.9-1.78,2.04-1.78,3.42v15.3h4.86c.6,0,.9.3.9.9v21.38c0,.57-.3.86-.9.86h-11.93c-.24,0-.45-.08-.63-.25s-.27-.37-.27-.61v-21.38c0-.27.09-.49.27-.65.18-.16.39-.25.63-.25h5.31v-15.3c0-1.89.77-3.46,2.29-4.7,1.53-1.24,3.33-1.87,5.4-1.87.3,0,.65.02,1.04.07.39.04.99.19,1.8.43.81.24,1.52.58,2.14,1.01.61.43,1.18,1.1,1.69,2,.51.9.78,1.95.81,3.15v14.94c.81-1.44,1.97-2.68,3.49-3.73,1.51-1.05,2.92-1.77,4.21-2.16v-5.4c-.27-.21-.58-.47-.94-.79-.36-.32-.87-.8-1.53-1.46-.66-.66-1.21-1.38-1.64-2.16-.44-.78-.65-1.51-.65-2.2,0-.81.16-1.42.5-1.82.33-.4.69-.61,1.08-.61.48,0,.97.21,1.48.63,0-.24.04-.47.14-.7.09-.22.37-.47.83-.74.46-.27,1.12-.41,1.96-.41.75,0,1.34.14,1.78.43.43.29.68.53.74.74.06.21.09.41.09.58.57-.39,1.06-.58,1.48-.58.54,0,.94.26,1.19.77s.38,1.09.38,1.75c0,1.77-1.53,3.93-4.59,6.48l-.05.04v5.17c.09,0,.31-.04.65-.13.34-.09.61-.13.79-.13,1.56,0,2.34.75,2.34,2.25,0,1.65-1.26,2.92-3.78,3.83v22.68c0,.3-.11.56-.31.76-.21.21-.47.32-.76.32-.33,0-.61-.1-.83-.32-.23-.21-.34-.46-.34-.76v-21.96c-1.02.33-1.85.75-2.5,1.26-.65.51-1.76,1.56-3.35,3.15h1.44c.45,0,.7.22.76.67,0,.45-.2.74-.58.86l-.9.22c.42,1.5.63,2.69.63,3.55,0,.51-.03.92-.09,1.24-.06.31-.2.72-.4,1.21-.21.5-.62.88-1.22,1.15-.6.27-1.38.4-2.34.4ZM118.56,129.73v19.58h10.12v-19.58h-10.12ZM123.47,131.44c.9,0,1.67.33,2.32.99.65.66.97,1.44.97,2.34s-.31,1.62-.92,2.25c-.62.63-1.36.95-2.23.95s-1.66-.32-2.27-.95c-.62-.63-.92-1.39-.92-2.29s.29-1.67.88-2.32c.58-.64,1.31-.97,2.18-.97ZM123.56,139.14c.9,0,1.67.33,2.29.99.63.66.95,1.46.95,2.38,0,.87-.31,1.62-.92,2.25-.62.63-1.36.94-2.23.94s-1.62-.32-2.25-.97c-.63-.64-.94-1.42-.94-2.32s.3-1.67.9-2.32c.6-.65,1.33-.97,2.21-.97ZM124.84,133.4c-.38-.38-.82-.56-1.33-.56s-.94.19-1.28.56c-.35.38-.52.82-.52,1.33s.18.95.54,1.33c.36.38.79.56,1.3.56s.95-.18,1.31-.54c.36-.36.54-.79.54-1.3,0-.54-.19-1-.56-1.37ZM139.04,133.96h-3.6c-.03.18-.11.51-.22.99-.12.48-.23.97-.32,1.46-.09.5-.13.94-.13,1.33,0,.81.19,1.42.56,1.82.38.4,1.01.61,1.91.61.48,0,.85-.02,1.12-.07.27-.05.57-.26.9-.65.33-.39.5-.96.5-1.71,0-.39-.04-.82-.14-1.28-.09-.46-.2-.98-.34-1.55-.13-.57-.22-.88-.25-.94ZM138.14,130.99v1.08c.36-.36.85-.86,1.46-1.51.61-.65,1.17-1.19,1.67-1.64.5-.45,1.07-.88,1.73-1.31.72-.48,1.67-.9,2.83-1.26v-2.92c-1.2.42-2.5,1.17-3.92,2.25-.27.21-.52.43-.76.65-.24.22-.47.48-.7.76-.23.29-.4.51-.54.68-.13.17-.31.43-.52.81-.21.38-.35.62-.4.72-.06.11-.21.4-.45.88s-.38.75-.4.81ZM146.91,115.38c2.97-2.37,4.46-4.26,4.46-5.67,0-.54-.09-.9-.27-1.08-.54.18-.99.51-1.35.99-.36.48-.62.95-.76,1.4-.15.45-.4.85-.74,1.21-.35.36-.8.54-1.37.54s-1.04-.18-1.42-.54c-.38-.36-.64-.76-.79-1.19-.15-.43-.4-.88-.74-1.35-.35-.46-.76-.79-1.24-.97-.18.09-.27.43-.27,1.04,0,.24.01.42.04.54.12.45.34.92.65,1.39.31.48.68.93,1.1,1.35.42.42.8.78,1.15,1.08.34.3.68.58,1.01.86l.54.41ZM147.23,107.46c-.39,0-.69.02-.9.05-.21.03-.43.18-.65.45-.23.27-.34.68-.34,1.22.96,1.5,1.47,2.28,1.53,2.34.21-.24.44-.55.7-.95.25-.39.46-.73.63-1.01.16-.28.25-.44.25-.47-.03-.78-.11-1.24-.23-1.39-.12-.15-.45-.23-.99-.23ZM148.08,122.94v2.7c1.47-.6,2.21-1.33,2.21-2.21,0-.24-.04-.41-.11-.5-.08-.09-.29-.13-.65-.13-.3,0-.78.04-1.44.13Z"/>
    <line class="cls-2" x1="23.2" y1="174.83" x2="169.26" y2="174.83"/>
    <text class="cls-1" transform="translate(59.37 209.76)"><tspan x="0" y="0">089</tspan></text>
    <polyline class="cls-3" points="159.62 10.97 171.69 10.97 184.24 23.51 184.24 36.4"/>
  </g>
</svg>