<?xml version="1.0" encoding="UTF-8"?>
<svg id="Ebene_2" data-name="Ebene 2" xmlns="http://www.w3.org/2000/svg" viewBox="0 0 920.33 229">
  <defs>
    <style>
      .cls-1 {
        stroke-width: 4px;
      }

      .cls-1, .cls-2 {
        fill: none;
        stroke: #fff;
        stroke-miterlimit: 10;
      }

      .cls-2 {
        stroke-width: 3px;
      }

      .cls-3 {
        fill: #fff;
      }

      .cls-4 {
        fill: #d87b00;
      }

      .cls-5 {
        fill: #7f7f7f;
      }
    </style>
  </defs>
  <g id="Ebene_17_Kopie_Kopie" data-name="Ebene 17 Kopie Kopie">
    <g>
      <path class="cls-3" d="M263.66,46.43c0-9.44-.18-10.95-5.43-11.4l-2.23-.18c-.53-.36-.36-1.96.18-2.23,4.45.18,7.48.27,11.22.27s6.59-.09,11.04-.27c.53.27.71,1.87.18,2.23l-2.23.18c-5.25.44-5.43,1.96-5.43,11.4v31.7c0,9.44.18,10.69,5.43,11.31l2.23.27c.54.36.36,1.96-.18,2.23-4.45-.18-7.48-.27-11.04-.27-3.74,0-6.77.09-11.22.27-.53-.27-.71-1.69-.18-2.23l2.23-.27c5.25-.62,5.43-1.87,5.43-11.31v-31.7Z"/>
      <path class="cls-3" d="M349.32,76.53c0,2.67,0,13.27.27,15.58-.18.53-.71.98-1.69.98-1.07-1.51-3.65-4.63-11.4-13.45l-20.66-23.51c-2.4-2.76-8.46-10.06-10.33-12.02h-.18c-.36,1.07-.45,3.12-.45,5.79v19.41c0,4.19.09,15.76,1.6,18.43.53.98,2.32,1.51,4.54,1.69l2.76.27c.53.71.45,1.78-.18,2.23-4.01-.18-7.12-.27-10.42-.27-3.74,0-6.14.09-9.26.27-.62-.45-.71-1.69-.18-2.23l2.4-.27c2.05-.27,3.47-.8,3.92-1.78,1.25-3.21,1.16-14.07,1.16-18.34v-25.74c0-2.49-.09-4.36-1.96-6.41-1.25-1.25-3.38-1.87-5.52-2.14l-1.51-.18c-.53-.53-.53-1.87.18-2.23,3.74.27,8.46.27,10.06.27,1.42,0,2.94-.09,4.1-.27,1.78,4.54,12.29,16.3,15.23,19.59l8.64,9.71c6.14,6.86,10.51,11.84,14.69,16.12h.18c.36-.45.36-1.87.36-3.74v-19.06c0-4.19-.09-15.76-1.78-18.43-.53-.8-1.96-1.34-5.52-1.78l-1.51-.18c-.62-.53-.53-1.96.18-2.23,4.1.18,7.12.27,10.51.27,3.83,0,6.14-.09,9.17-.27.71.45.71,1.69.18,2.23l-1.25.18c-2.85.44-4.63,1.16-4.99,1.87-1.51,3.21-1.34,14.25-1.34,18.34v21.28Z"/>
      <path class="cls-3" d="M387.34,93.09c-7.48,0-12.2-2.32-13.89-3.29-1.07-1.96-2.23-8.28-2.4-12.47.45-.62,1.78-.8,2.14-.27,1.34,4.54,4.99,13.27,15.32,13.27,7.48,0,11.13-4.9,11.13-10.24,0-3.92-.8-8.28-7.3-12.47l-8.46-5.52c-4.45-2.94-9.62-8.01-9.62-15.32,0-8.46,6.59-15.32,18.17-15.32,2.76,0,5.97.53,8.28,1.16,1.16.36,2.4.53,3.12.53.8,2.14,1.6,7.12,1.6,10.86-.36.53-1.78.8-2.23.27-1.16-4.27-3.56-10.06-12.11-10.06s-10.6,5.79-10.6,9.88c0,5.17,4.27,8.9,7.57,10.95l7.12,4.45c5.61,3.47,11.13,8.64,11.13,17.1,0,9.8-7.39,16.47-18.97,16.47Z"/>
      <path class="cls-3" d="M433.73,39.04c6.5-5.08,14.78-7.57,24.04-7.57,4.81,0,11.58.98,15.76,2.14,1.07.27,1.69.44,2.49.36.09,2.05.53,7.66,1.25,13.09-.45.62-1.78.71-2.41.18-1.33-6.06-5.34-13-18.25-13-13.62,0-25.2,8.64-25.2,27.07s11.84,29.03,26.45,29.03c11.49,0,16.56-7.48,18.61-12.73.62-.45,1.96-.27,2.32.36-.62,4.63-2.94,10.51-4.27,12.2-1.07.18-2.14.53-3.12.89-1.96.71-8.37,2.05-14.07,2.05-8.01,0-15.67-1.6-22.17-5.97-7.12-4.9-12.65-13-12.65-24.49,0-9.88,4.45-18.34,11.22-23.6Z"/>
      <path class="cls-3" d="M511.38,62.91c-4.27,0-4.45.18-4.45,2.85v12.56c0,9.35.45,10.6,5.43,11.13l2.58.27c.53.36.36,1.96-.18,2.23-4.81-.18-7.84-.27-11.31-.27-3.83,0-6.86.18-10.33.27-.53-.27-.71-1.69-.18-2.23l1.51-.27c4.99-.89,5.17-1.78,5.17-11.13v-32.06c0-9.35-.62-10.86-5.25-11.22l-2.32-.18c-.53-.36-.36-1.96.18-2.23,4.36.09,7.39.27,11.22.27,3.47,0,6.5-.09,10.33-.27.53.27.71,1.87.18,2.23l-1.69.18c-5.17.53-5.34,1.87-5.34,11.22v10.24c0,2.76.18,2.85,4.45,2.85h25.47c4.27,0,4.45-.09,4.45-2.85v-10.24c0-9.35-.18-10.69-5.43-11.22l-1.69-.18c-.53-.36-.36-1.96.18-2.23,4.1.18,7.12.27,10.78.27s6.5-.09,10.51-.27c.53.27.71,1.87.18,2.23l-1.87.18c-5.17.53-5.34,1.87-5.34,11.22v32.06c0,9.35.18,10.51,5.34,11.13l2.14.27c.53.36.36,1.96-.18,2.23-4.27-.18-7.3-.27-10.78-.27-3.65,0-6.86.09-10.78.27-.53-.27-.71-1.69-.18-2.23l1.69-.27c5.43-.89,5.43-1.78,5.43-11.13v-12.56c0-2.67-.18-2.85-4.45-2.85h-25.47Z"/>
      <path class="cls-3" d="M579.05,46.34c0-8.46-.27-9.97-3.92-10.42l-2.85-.36c-.62-.45-.62-1.87.09-2.23,4.99-.45,11.13-.71,19.86-.71,5.52,0,10.77.45,14.87,2.67,4.27,2.23,7.39,6.23,7.39,12.47,0,8.46-6.68,13.09-11.13,14.87-.45.53,0,1.42.45,2.14,7.12,11.49,11.84,18.61,17.9,23.69,1.51,1.34,3.74,2.32,6.14,2.49.45.18.53.89.09,1.25-.8.27-2.23.45-3.92.45-7.57,0-12.11-2.23-18.43-11.22-2.32-3.29-5.97-9.44-8.73-13.45-1.33-1.96-2.76-2.85-6.32-2.85-4.01,0-4.19.09-4.19,1.96v11.22c0,9.35.18,10.42,5.34,11.13l1.87.27c.53.45.36,1.96-.18,2.23-4.01-.18-7.04-.27-10.6-.27-3.74,0-6.95.09-11.13.27-.53-.27-.71-1.6-.18-2.23l2.23-.27c5.17-.62,5.34-1.78,5.34-11.13v-31.97ZM586.35,59.08c0,1.6,0,2.58.27,2.94.27.27,1.6.45,6.14.45,3.21,0,6.59-.36,9.17-2.32,2.4-1.87,4.45-4.99,4.45-11.04,0-7.04-4.36-13.71-14.25-13.71-5.52,0-5.79.36-5.79,2.85v20.84Z"/>
      <path class="cls-3" d="M644.14,46.43c0-9.44-.18-10.95-5.43-11.4l-2.23-.18c-.53-.36-.36-1.96.18-2.23,4.45.18,7.48.27,11.22.27s6.59-.09,11.04-.27c.53.27.71,1.87.18,2.23l-2.23.18c-5.25.44-5.43,1.96-5.43,11.4v31.7c0,9.44.18,10.69,5.43,11.31l2.23.27c.54.36.36,1.96-.18,2.23-4.45-.18-7.48-.27-11.04-.27-3.74,0-6.77.09-11.22.27-.53-.27-.71-1.69-.18-2.23l2.23-.27c5.25-.62,5.43-1.87,5.43-11.31v-31.7Z"/>
      <path class="cls-3" d="M689.2,58.01c0,2.4.27,2.4,2.94,2.4h6.05c3.65,0,6.5-.18,7.57-.53.98-.36,1.69-.8,2.23-3.12l.8-3.56c.45-.53,1.96-.53,2.32,0,0,2.14-.36,5.7-.36,8.99s.36,6.59.36,8.64c-.36.53-1.69.53-2.32,0l-.89-3.47c-.45-1.6-1.16-2.85-2.85-3.38-1.25-.36-3.47-.44-6.86-.44h-6.05c-2.67,0-2.94.09-2.94,2.4v12.38c0,9.35.18,10.69,5.43,11.13l3.03.27c.53.36.36,1.96-.18,2.23-5.25-.18-8.28-.27-11.84-.27-3.92,0-6.95.09-11.13.27-.53-.27-.71-1.69-.18-2.23l2.23-.27c5.17-.62,5.34-1.78,5.34-11.13v-32.06c0-9.35-.18-10.6-5.34-11.22l-1.42-.18c-.53-.36-.36-1.96.18-2.23,3.74.18,6.77.27,10.33.27h16.38c5.7,0,10.86,0,12.02-.27,0,4.1.09,8.37.27,11.75-.27.53-1.51.8-2.14.27-.71-4.01-1.78-7.3-6.23-8.46-1.96-.53-4.9-.53-8.64-.53h-5.43c-2.67,0-2.67.18-2.67,3.56v18.79Z"/>
      <path class="cls-3" d="M758.83,78.31c0,9.35.18,10.69,5.34,11.13l2.85.27c.53.36.36,1.96-.18,2.23-5.08-.18-8.1-.27-11.67-.27s-6.68.09-12.38.27c-.53-.27-.71-1.78,0-2.23l3.21-.27c5.08-.45,5.52-1.78,5.52-11.13v-39.81c0-2.76,0-2.85-2.67-2.85h-4.9c-3.83,0-8.73.18-10.95,2.23-2.14,1.96-3.03,3.92-4.01,6.14-.71.53-1.96.09-2.32-.62,1.42-4.01,2.76-9.71,3.38-13.27.27-.18,1.42-.27,1.69,0,.53,2.85,3.47,2.76,7.57,2.76h36.07c4.81,0,5.61-.18,6.95-2.49.44-.18,1.42-.09,1.6.27-.98,3.65-1.6,10.86-1.34,13.54-.36.71-1.87.71-2.32.18-.27-2.23-.89-5.52-2.23-6.5-2.05-1.51-5.43-2.23-10.33-2.23h-6.32c-2.67,0-2.58.09-2.58,3.03v39.63Z"/>
      <path class="cls-3" d="M803.89,46.25c0-9.26-.18-10.6-5.43-11.22l-1.42-.18c-.54-.36-.36-1.96.18-2.23,3.83.18,6.86.27,10.51.27h16.74c5.7,0,10.95,0,12.02-.27.53,1.51,1.07,7.93,1.42,11.84-.36.53-1.78.71-2.23.18-1.34-4.19-2.14-7.3-6.77-8.46-1.87-.45-4.72-.53-8.64-.53h-6.41c-2.67,0-2.67.18-2.67,3.56v17.81c0,2.49.27,2.49,2.94,2.49h5.16c3.74,0,6.5-.18,7.57-.53,1.07-.36,1.69-.89,2.14-3.12l.71-3.65c.45-.53,1.96-.53,2.32.09,0,2.14-.36,5.61-.36,8.99,0,3.21.36,6.59.36,8.55-.36.62-1.87.62-2.32.09l-.8-3.47c-.36-1.6-.98-2.94-2.76-3.38-1.25-.36-3.38-.45-6.86-.45h-5.16c-2.67,0-2.94.09-2.94,2.4v12.56c0,4.72.27,7.75,1.69,9.26,1.07,1.07,2.94,2.05,10.78,2.05,6.86,0,9.44-.36,11.4-1.34,1.6-.89,4.01-4.01,6.32-8.64.62-.45,1.87-.18,2.23.62-.62,3.12-2.85,9.97-4.01,12.38-8.01-.18-15.94-.27-23.87-.27h-8.01c-3.83,0-6.86.09-12.11.27-.54-.27-.71-1.69-.18-2.23l2.94-.27c5.08-.45,5.52-1.78,5.52-11.13v-32.06Z"/>
      <path class="cls-3" d="M911.46,76.53c0,2.67,0,13.27.27,15.58-.18.53-.71.98-1.69.98-1.07-1.51-3.65-4.63-11.4-13.45l-20.66-23.51c-2.4-2.76-8.46-10.06-10.33-12.02h-.18c-.36,1.07-.45,3.12-.45,5.79v19.41c0,4.19.09,15.76,1.6,18.43.53.98,2.32,1.51,4.54,1.69l2.76.27c.53.71.45,1.78-.18,2.23-4.01-.18-7.12-.27-10.42-.27-3.74,0-6.14.09-9.26.27-.62-.45-.71-1.69-.18-2.23l2.4-.27c2.05-.27,3.47-.8,3.92-1.78,1.25-3.21,1.16-14.07,1.16-18.34v-25.74c0-2.49-.09-4.36-1.96-6.41-1.25-1.25-3.38-1.87-5.52-2.14l-1.51-.18c-.53-.53-.53-1.87.18-2.23,3.74.27,8.46.27,10.06.27,1.42,0,2.94-.09,4.1-.27,1.78,4.54,12.29,16.3,15.23,19.59l8.64,9.71c6.14,6.86,10.51,11.84,14.69,16.12h.18c.36-.45.36-1.87.36-3.74v-19.06c0-4.19-.09-15.76-1.78-18.43-.53-.8-1.96-1.34-5.52-1.78l-1.51-.18c-.62-.53-.53-1.96.18-2.23,4.1.18,7.12.27,10.51.27,3.83,0,6.14-.09,9.17-.27.71.45.71,1.69.18,2.23l-1.25.18c-2.85.44-4.63,1.16-4.99,1.87-1.51,3.21-1.34,14.25-1.34,18.34v21.28Z"/>
    </g>
    <g>
      <path class="cls-5" d="M260.46,196.84h-1.72v-14.28h6.38v1.52h-4.66v5.14h4.38v1.54h-4.38v6.08Z"/>
      <path class="cls-5" d="M287.28,189.68c0,1.05-.1,2.03-.3,2.92-.2.89-.51,1.67-.93,2.34-.42.67-.95,1.18-1.6,1.55s-1.42.55-2.31.55-1.69-.19-2.34-.57c-.65-.38-1.19-.9-1.6-1.56-.41-.66-.72-1.44-.91-2.34s-.29-1.87-.29-2.91c0-1.57.19-2.9.57-3.99.38-1.09.95-1.91,1.72-2.47s1.72-.84,2.87-.84,2.16.32,2.91.96,1.31,1.51,1.67,2.61c.36,1.1.54,2.35.54,3.75ZM278.8,189.68c0,1.25.12,2.31.37,3.18.25.87.62,1.52,1.11,1.97s1.11.67,1.86.67,1.36-.22,1.85-.66c.49-.44.85-1.09,1.1-1.96.25-.87.37-1.93.37-3.2,0-1.89-.27-3.33-.81-4.31-.54-.98-1.37-1.47-2.49-1.47-.76,0-1.39.22-1.89.66-.5.44-.87,1.09-1.11,1.95-.24.86-.36,1.92-.36,3.17Z"/>
      <path class="cls-5" d="M303.21,182.56c1.05,0,1.91.15,2.58.45.67.3,1.16.75,1.49,1.34.33.59.49,1.34.49,2.25,0,.67-.09,1.25-.28,1.74-.19.49-.46.91-.81,1.25-.35.34-.78.62-1.29.85l3.2,6.4h-1.94l-2.82-5.96h-1.84v5.96h-1.72v-14.28h2.94ZM303.21,184.1h-1.22v5.34h1.36c.88,0,1.54-.23,1.99-.69s.67-1.15.67-2.07c0-.63-.1-1.13-.3-1.5-.2-.37-.51-.65-.92-.82s-.94-.26-1.58-.26Z"/>
      <path class="cls-5" d="M326.16,196.84l-3.78-12.14h-.08c.03.39.05.77.07,1.15.02.38.03.74.04,1.07,0,.33,0,.63,0,.9v9.02h-1.62v-14.28h2.46l3.66,11.68h.06l3.66-11.68h2.48v14.28h-1.68v-9.02c0-.28,0-.58,0-.91,0-.33.02-.68.04-1.05.02-.37.04-.76.05-1.16h-.08l-3.8,12.14h-1.5Z"/>
      <path class="cls-5" d="M353.04,196.84h-6.38v-14.28h6.38v1.52h-4.66v4.54h4.38v1.52h-4.38v5.16h4.66v1.54Z"/>
      <path class="cls-5" d="M365.97,196.84v-14.28h1.72v12.74h4.62v1.54h-6.34Z"/>
      <path class="cls-5" d="M394,196.84h-2.06l-5.72-11.7h-.08c.03.35.05.7.07,1.06.02.36.04.72.05,1.07.01.35.02.7.02,1.05v8.52h-1.62v-14.28h2.06l5.7,11.56h.06c-.01-.33-.03-.68-.05-1.05-.02-.37-.03-.73-.04-1.1,0-.37,0-.7,0-.99v-8.42h1.62v14.28Z"/>
      <path class="cls-5" d="M428.75,196.84l-1.24-4.44h-4.04l-1.24,4.44h-1.8l4.1-14.3h1.9l4.12,14.3h-1.8ZM425.91,186.24c-.04-.2-.09-.42-.16-.67-.07-.25-.12-.5-.17-.75-.05-.25-.09-.47-.13-.66-.03.23-.06.46-.11.7-.05.24-.1.47-.15.7-.05.23-.11.45-.16.68l-1.2,4.58h3.3l-1.22-4.58Z"/>
      <path class="cls-5" d="M442.53,196.84v-14.28h1.72v12.74h4.62v1.54h-6.34Z"/>
      <path class="cls-5" d="M464.8,196.84h-1.72v-12.74h-3.26v-1.54h8.24v1.54h-3.26v12.74Z"/>
      <path class="cls-5" d="M486.95,196.84l-1.24-4.44h-4.04l-1.24,4.44h-1.8l4.1-14.3h1.9l4.12,14.3h-1.8ZM481.1,179.86c0-.35.08-.6.25-.76.17-.16.38-.24.63-.24s.44.08.61.25c.17.17.25.42.25.75s-.08.61-.25.78c-.17.17-.37.26-.61.26-.25,0-.46-.09-.63-.26-.17-.17-.25-.43-.25-.78ZM484.12,186.24c-.04-.2-.09-.42-.16-.67-.07-.25-.12-.5-.17-.75-.05-.25-.09-.47-.13-.66-.03.23-.06.46-.11.7-.05.24-.1.47-.15.7-.05.23-.11.45-.16.68l-1.2,4.58h3.3l-1.22-4.58ZM484.5,179.86c0-.35.09-.6.26-.76.17-.16.38-.24.62-.24s.45.08.62.25c.17.17.26.42.26.75s-.09.61-.26.78c-.17.17-.38.26-.62.26-.25,0-.46-.09-.63-.26-.17-.17-.25-.43-.25-.78Z"/>
      <path class="cls-5" d="M505.89,189.3h4.04v7.02c-.64.24-1.3.42-1.98.54s-1.39.18-2.14.18c-1.27,0-2.31-.32-3.14-.95-.83-.63-1.45-1.5-1.86-2.61s-.62-2.37-.62-3.8.23-2.73.68-3.82,1.12-1.95,2.01-2.57c.89-.62,1.99-.93,3.31-.93.67,0,1.3.08,1.89.23s1.15.38,1.67.67l-.62,1.46c-.45-.27-.93-.47-1.42-.62-.49-.15-1-.22-1.52-.22-.89,0-1.65.23-2.28.68-.63.45-1.1,1.11-1.43,1.98-.33.87-.49,1.92-.49,3.16,0,1.11.14,2.1.41,2.98.27.88.71,1.57,1.3,2.07.59.5,1.37.75,2.33.75.45,0,.86-.03,1.22-.08.36-.05.69-.13.98-.22v-4.38h-2.34v-1.52Z"/>
      <path class="cls-5" d="M525.94,189.36l2.6-6.8h1.82l-3.58,8.72v5.56h-1.72v-5.5l-3.58-8.78h1.82l2.64,6.8Z"/>
      <path class="cls-5" d="M545.3,182.56c1.55,0,2.69.35,3.42,1.06.73.71,1.1,1.76,1.1,3.16,0,.68-.09,1.3-.27,1.86-.18.56-.46,1.04-.84,1.43-.38.39-.86.69-1.44.9-.58.21-1.28.31-2.09.31h-1.14v5.56h-1.72v-14.28h2.98ZM545.22,184.06h-1.18v5.72h.96c.71,0,1.28-.1,1.73-.3.45-.2.78-.52.99-.96.21-.44.32-1.01.32-1.7,0-.97-.23-1.68-.68-2.11s-1.17-.65-2.14-.65Z"/>
      <path class="cls-5" d="M566.09,196.84h-1.72v-12.74h-3.26v-1.54h8.24v1.54h-3.26v12.74Z"/>
      <path class="cls-5" d="M585.19,196.84h-4.54v-.98l1.4-.36v-11.6l-1.4-.36v-.98h4.54v.98l-1.42.36v11.6l1.42.36v.98Z"/>
      <path class="cls-5" d="M604.54,192.94c0,.83-.17,1.54-.51,2.15-.34.61-.82,1.08-1.45,1.43-.63.35-1.36.52-2.2.52-.43,0-.84-.02-1.23-.07-.39-.05-.76-.12-1.1-.22-.34-.1-.65-.22-.93-.35v-1.74c.45.25.97.45,1.55.59.58.14,1.14.21,1.69.21s.98-.1,1.34-.31c.36-.21.64-.49.83-.85s.29-.76.29-1.2c0-.47-.08-.86-.24-1.18-.16-.32-.43-.61-.8-.88s-.88-.54-1.52-.82c-.48-.23-.91-.47-1.28-.72s-.69-.54-.95-.85c-.26-.31-.46-.68-.59-1.1-.13-.42-.2-.91-.2-1.47-.01-.75.15-1.4.49-1.96.34-.56.81-1,1.4-1.31.59-.31,1.27-.46,2.03-.45.63,0,1.21.07,1.75.21s1.02.31,1.45.51l-.56,1.54c-.43-.21-.86-.38-1.3-.5-.44-.12-.88-.18-1.32-.18-.48,0-.88.09-1.2.27-.32.18-.57.43-.74.74-.17.31-.26.68-.26,1.09,0,.48.08.88.23,1.2.15.32.41.6.78.85.37.25.86.52,1.47.83.68.31,1.25.65,1.71,1.03.46.38.8.81,1.03,1.3.23.49.34,1.05.34,1.69Z"/>
      <path class="cls-5" d="M622.21,183.88c-.61,0-1.15.15-1.6.45-.45.3-.83.72-1.14,1.25s-.53,1.15-.68,1.85c-.15.7-.22,1.46-.22,2.27,0,1.19.14,2.22.43,3.09.29.87.71,1.54,1.27,2.01.56.47,1.23.7,2,.7.48,0,.93-.05,1.34-.15.41-.1.81-.23,1.2-.39v1.52c-.39.19-.8.33-1.24.42-.44.09-.94.14-1.5.14-1.12,0-2.07-.3-2.86-.89-.79-.59-1.39-1.44-1.81-2.54s-.63-2.41-.63-3.93c0-1.03.11-1.99.34-2.88.23-.89.57-1.67,1.02-2.34.45-.67,1.02-1.19,1.7-1.56.68-.37,1.46-.56,2.34-.56.56,0,1.1.06,1.61.19.51.13,1,.32,1.45.57l-.64,1.46c-.33-.2-.7-.36-1.1-.49-.4-.13-.83-.19-1.28-.19Z"/>
      <path class="cls-5" d="M646.43,196.84h-1.72v-6.68h-5.28v6.68h-1.72v-14.28h1.72v6.06h5.28v-6.06h1.72v14.28Z"/>
      <path class="cls-5" d="M666.34,196.84h-6.38v-14.28h6.38v1.52h-4.66v4.54h4.38v1.52h-4.38v5.16h4.66v1.54Z"/>
      <path class="cls-5" d="M682.22,182.56c1.05,0,1.91.15,2.58.45.67.3,1.16.75,1.49,1.34.33.59.49,1.34.49,2.25,0,.67-.09,1.25-.28,1.74-.19.49-.46.91-.81,1.25-.35.34-.78.62-1.29.85l3.2,6.4h-1.94l-2.82-5.96h-1.84v5.96h-1.72v-14.28h2.94ZM682.22,184.1h-1.22v5.34h1.36c.88,0,1.54-.23,1.99-.69s.67-1.15.67-2.07c0-.63-.1-1.13-.3-1.5-.2-.37-.51-.65-.92-.82s-.94-.26-1.58-.26Z"/>
      <path class="cls-5" d="M717.97,196.84h-4.54v-.98l1.4-.36v-11.6l-1.4-.36v-.98h4.54v.98l-1.42.36v11.6l1.42.36v.98Z"/>
      <path class="cls-5" d="M740,196.84h-2.06l-5.72-11.7h-.08c.03.35.05.7.07,1.06.02.36.04.72.05,1.07.01.35.02.7.02,1.05v8.52h-1.62v-14.28h2.06l5.7,11.56h.06c-.01-.33-.03-.68-.05-1.05-.02-.37-.03-.73-.04-1.1,0-.37,0-.7,0-.99v-8.42h1.62v14.28Z"/>
      <path class="cls-5" d="M760.19,192.94c0,.83-.17,1.54-.51,2.15-.34.61-.82,1.08-1.45,1.43-.63.35-1.36.52-2.2.52-.43,0-.84-.02-1.23-.07-.39-.05-.76-.12-1.1-.22-.34-.1-.65-.22-.93-.35v-1.74c.45.25.97.45,1.55.59.58.14,1.14.21,1.69.21s.98-.1,1.34-.31c.36-.21.64-.49.83-.85s.29-.76.29-1.2c0-.47-.08-.86-.24-1.18-.16-.32-.43-.61-.8-.88s-.88-.54-1.52-.82c-.48-.23-.91-.47-1.28-.72s-.69-.54-.95-.85c-.26-.31-.46-.68-.59-1.1-.13-.42-.2-.91-.2-1.47-.01-.75.15-1.4.49-1.96.34-.56.81-1,1.4-1.31.59-.31,1.27-.46,2.03-.45.63,0,1.21.07,1.75.21s1.02.31,1.45.51l-.56,1.54c-.43-.21-.86-.38-1.3-.5-.44-.12-.88-.18-1.32-.18-.48,0-.88.09-1.2.27-.32.18-.57.43-.74.74-.17.31-.26.68-.26,1.09,0,.48.08.88.23,1.2.15.32.41.6.78.85.37.25.86.52,1.47.83.68.31,1.25.65,1.71,1.03.46.38.8.81,1.03,1.3.23.49.34,1.05.34,1.69Z"/>
      <path class="cls-5" d="M777.87,183.88c-.61,0-1.15.15-1.6.45-.45.3-.83.72-1.14,1.25s-.53,1.15-.68,1.85c-.15.7-.22,1.46-.22,2.27,0,1.19.14,2.22.43,3.09.29.87.71,1.54,1.27,2.01.56.47,1.23.7,2,.7.48,0,.93-.05,1.34-.15.41-.1.81-.23,1.2-.39v1.52c-.39.19-.8.33-1.24.42-.44.09-.94.14-1.5.14-1.12,0-2.07-.3-2.86-.89-.79-.59-1.39-1.44-1.81-2.54s-.63-2.41-.63-3.93c0-1.03.11-1.99.34-2.88.23-.89.57-1.67,1.02-2.34.45-.67,1.02-1.19,1.7-1.56.68-.37,1.46-.56,2.34-.56.56,0,1.1.06,1.61.19.51.13,1,.32,1.45.57l-.64,1.46c-.33-.2-.7-.36-1.1-.49-.4-.13-.83-.19-1.28-.19Z"/>
      <path class="cls-5" d="M802.08,196.84h-1.72v-6.68h-5.28v6.68h-1.72v-14.28h1.72v6.06h5.28v-6.06h1.72v14.28Z"/>
      <path class="cls-5" d="M818.56,182.56c1.05,0,1.91.15,2.58.45.67.3,1.16.75,1.49,1.34.33.59.49,1.34.49,2.25,0,.67-.09,1.25-.28,1.74-.19.49-.46.91-.81,1.25-.35.34-.78.62-1.29.85l3.2,6.4h-1.94l-2.82-5.96h-1.84v5.96h-1.72v-14.28h2.94ZM818.56,184.1h-1.22v5.34h1.36c.88,0,1.54-.23,1.99-.69s.67-1.15.67-2.07c0-.63-.1-1.13-.3-1.5-.2-.37-.51-.65-.92-.82s-.94-.26-1.58-.26Z"/>
      <path class="cls-5" d="M839.81,196.84h-4.54v-.98l1.4-.36v-11.6l-1.4-.36v-.98h4.54v.98l-1.42.36v11.6l1.42.36v.98Z"/>
      <path class="cls-5" d="M854.23,196.84h-1.72v-14.28h6.38v1.52h-4.66v5.14h4.38v1.54h-4.38v6.08Z"/>
      <path class="cls-5" d="M874.88,196.84h-1.72v-12.74h-3.26v-1.54h8.24v1.54h-3.26v12.74Z"/>
      <path class="cls-5" d="M896.69,196.84h-6.38v-14.28h6.38v1.52h-4.66v4.54h4.38v1.52h-4.38v5.16h4.66v1.54Z"/>
      <path class="cls-5" d="M918.97,196.84h-2.06l-5.72-11.7h-.08c.03.35.05.7.07,1.06.02.36.04.72.05,1.07.01.35.02.7.02,1.05v8.52h-1.62v-14.28h2.06l5.7,11.56h.06c-.01-.33-.03-.68-.05-1.05-.02-.37-.03-.73-.04-1.1,0-.37,0-.7,0-.99v-8.42h1.62v14.28Z"/>
    </g>
    <g>
      <path class="cls-4" d="M273.48,166.39c-7.31,0-11.92-2.26-13.57-3.22-1.04-1.91-2.17-8.09-2.35-12.18.43-.61,1.74-.78,2.09-.26,1.3,4.44,4.87,12.96,14.96,12.96,7.31,0,10.87-4.78,10.87-10,0-3.83-.78-8.09-7.13-12.18l-8.26-5.39c-4.35-2.87-9.39-7.83-9.39-14.96,0-8.26,6.44-14.96,17.74-14.96,2.7,0,5.83.52,8.09,1.13,1.13.35,2.35.52,3.04.52.78,2.09,1.57,6.96,1.57,10.61-.35.52-1.74.78-2.17.26-1.13-4.17-3.48-9.83-11.83-9.83s-10.35,5.65-10.35,9.65c0,5.04,4.17,8.7,7.39,10.7l6.96,4.35c5.48,3.39,10.87,8.44,10.87,16.7,0,9.57-7.22,16.09-18.53,16.09Z"/>
      <path class="cls-4" d="M335.85,113.6c6.35-4.96,14.44-7.39,23.48-7.39,4.7,0,11.31.96,15.39,2.09,1.04.26,1.65.44,2.43.35.09,2,.52,7.48,1.22,12.79-.43.61-1.74.7-2.35.17-1.3-5.91-5.22-12.7-17.83-12.7-13.31,0-24.61,8.44-24.61,26.44s11.57,28.35,25.83,28.35c11.22,0,16.18-7.31,18.18-12.44.61-.43,1.91-.26,2.26.35-.61,4.52-2.87,10.26-4.17,11.92-1.04.17-2.09.52-3.04.87-1.91.7-8.18,2-13.74,2-7.83,0-15.31-1.57-21.66-5.83-6.96-4.78-12.35-12.7-12.35-23.92,0-9.65,4.35-17.92,10.96-23.05Z"/>
      <path class="cls-4" d="M428.74,136.91c-4.17,0-4.35.17-4.35,2.78v12.26c0,9.13.43,10.35,5.31,10.87l2.52.26c.52.35.35,1.91-.17,2.17-4.7-.17-7.65-.26-11.05-.26-3.74,0-6.7.17-10.09.26-.52-.26-.7-1.65-.17-2.17l1.48-.26c4.87-.87,5.04-1.74,5.04-10.87v-31.31c0-9.13-.61-10.61-5.13-10.96l-2.26-.17c-.52-.35-.35-1.91.17-2.17,4.26.09,7.22.26,10.96.26,3.39,0,6.35-.09,10.09-.26.52.26.7,1.83.17,2.17l-1.65.17c-5.04.52-5.22,1.83-5.22,10.96v10c0,2.7.17,2.78,4.35,2.78h24.88c4.17,0,4.35-.09,4.35-2.78v-10c0-9.13-.17-10.44-5.31-10.96l-1.65-.17c-.52-.35-.35-1.91.17-2.17,4,.17,6.96.26,10.52.26s6.35-.09,10.26-.26c.52.26.7,1.83.17,2.17l-1.83.17c-5.04.52-5.22,1.83-5.22,10.96v31.31c0,9.13.17,10.26,5.22,10.87l2.09.26c.52.35.35,1.91-.17,2.17-4.18-.17-7.13-.26-10.52-.26-3.57,0-6.7.09-10.52.26-.52-.26-.7-1.65-.17-2.17l1.65-.26c5.31-.87,5.31-1.74,5.31-10.87v-12.26c0-2.61-.17-2.78-4.35-2.78h-24.88Z"/>
      <path class="cls-4" d="M511.89,120.64c0-9.13-.17-10.52-5.65-10.96l-2.17-.17c-.52-.35-.35-1.91.17-2.17,4.87.17,7.83.26,11.31.26s6.35-.09,10.7-.26c.52.26.7,1.83.17,2.17l-2.09.17c-5.13.44-5.31,1.83-5.31,10.96v30.27c0,5.48.26,7.74,1.83,9.39.96.96,2.61,2,9.48,2,7.39,0,9.22-.35,10.61-1.13,1.74-1.04,4-4.17,5.74-8.61.52-.43,2.17-.09,2.17.52,0,.96-2.44,9.83-3.65,12.18-4.44-.17-12.7-.26-21.66-.26h-8c-3.65,0-6.44.09-11.31.26-.52-.26-.7-1.65-.17-2.17l2.61-.26c5.04-.52,5.22-1.74,5.22-10.87v-31.31Z"/>
      <path class="cls-4" d="M682.28,166.39c-7.31,0-11.92-2.26-13.57-3.22-1.04-1.91-2.17-8.09-2.35-12.18.43-.61,1.74-.78,2.09-.26,1.3,4.44,4.87,12.96,14.96,12.96,7.31,0,10.87-4.78,10.87-10,0-3.83-.78-8.09-7.13-12.18l-8.26-5.39c-4.35-2.87-9.39-7.83-9.39-14.96,0-8.26,6.44-14.96,17.74-14.96,2.7,0,5.83.52,8.09,1.13,1.13.35,2.35.52,3.04.52.78,2.09,1.57,6.96,1.57,10.61-.35.52-1.74.78-2.17.26-1.13-4.17-3.48-9.83-11.83-9.83s-10.35,5.65-10.35,9.65c0,5.04,4.17,8.7,7.39,10.7l6.96,4.35c5.48,3.39,10.87,8.44,10.87,16.7,0,9.57-7.22,16.09-18.53,16.09Z"/>
      <path class="cls-4" d="M749.34,166.39c-7.31,0-11.92-2.26-13.57-3.22-1.04-1.91-2.17-8.09-2.35-12.18.43-.61,1.74-.78,2.09-.26,1.3,4.44,4.87,12.96,14.96,12.96,7.31,0,10.87-4.78,10.87-10,0-3.83-.78-8.09-7.13-12.18l-8.26-5.39c-4.35-2.87-9.39-7.83-9.39-14.96,0-8.26,6.44-14.96,17.74-14.96,2.7,0,5.83.52,8.09,1.13,1.13.35,2.35.52,3.04.52.78,2.09,1.57,6.96,1.57,10.61-.35.52-1.74.78-2.17.26-1.13-4.17-3.48-9.83-11.83-9.83s-10.35,5.65-10.35,9.65c0,5.04,4.17,8.7,7.39,10.7l6.96,4.35c5.48,3.39,10.87,8.44,10.87,16.7,0,9.57-7.22,16.09-18.53,16.09Z"/>
      <path class="cls-4" d="M808.05,120.64c0-9.05-.17-10.35-5.31-10.96l-1.39-.17c-.52-.35-.35-1.91.17-2.17,3.74.17,6.7.26,10.26.26h16.35c5.57,0,10.7,0,11.74-.26.52,1.48,1.04,7.74,1.39,11.57-.35.52-1.74.7-2.17.17-1.3-4.09-2.09-7.13-6.61-8.26-1.83-.43-4.61-.52-8.44-.52h-6.26c-2.61,0-2.61.17-2.61,3.48v17.4c0,2.44.26,2.44,2.87,2.44h5.04c3.65,0,6.35-.17,7.39-.52,1.04-.35,1.65-.87,2.09-3.04l.7-3.57c.43-.52,1.91-.52,2.26.09,0,2.09-.35,5.48-.35,8.78,0,3.13.35,6.44.35,8.35-.35.61-1.83.61-2.26.09l-.78-3.39c-.35-1.57-.96-2.87-2.7-3.31-1.22-.35-3.31-.44-6.7-.44h-5.04c-2.61,0-2.87.09-2.87,2.35v12.26c0,4.61.26,7.57,1.65,9.05,1.04,1.04,2.87,2,10.52,2,6.7,0,9.22-.35,11.13-1.3,1.57-.87,3.91-3.91,6.17-8.44.61-.43,1.83-.17,2.17.61-.61,3.04-2.78,9.74-3.91,12.09-7.83-.17-15.57-.26-23.31-.26h-7.83c-3.74,0-6.7.09-11.83.26-.52-.26-.7-1.65-.17-2.17l2.87-.26c4.96-.44,5.39-1.74,5.39-10.87v-31.31Z"/>
      <path class="cls-4" d="M883.37,120.64c0-9.13-.17-10.52-5.65-10.96l-2.17-.17c-.52-.35-.35-1.91.17-2.17,4.87.17,7.83.26,11.31.26s6.35-.09,10.7-.26c.52.26.7,1.83.17,2.17l-2.09.17c-5.13.44-5.31,1.83-5.31,10.96v30.27c0,5.48.26,7.74,1.83,9.39.96.96,2.61,2,9.48,2,7.39,0,9.22-.35,10.61-1.13,1.74-1.04,4-4.17,5.74-8.61.52-.43,2.17-.09,2.17.52,0,.96-2.44,9.83-3.65,12.18-4.44-.17-12.7-.26-21.66-.26h-8c-3.65,0-6.44.09-11.31.26-.52-.26-.7-1.65-.17-2.17l2.61-.26c5.04-.52,5.22-1.74,5.22-10.87v-31.31Z"/>
    </g>
    <g id="Ebene_23_Kopie" data-name="Ebene 23 Kopie">
      <path class="cls-4" d="M595.21,108.25c-.26-2.52,1.57-4.87,4.26-4.87s4.44,2.44,4.44,4.7c0,2.52-1.74,4.61-4.44,4.61s-4.26-1.48-4.26-4.44Z"/>
      <path class="cls-4" d="M612,108.25c0-2.52,1.83-4.87,4.52-4.87s4.17,2.44,4.17,4.7c0,2.52-1.48,4.61-4.17,4.61s-4.44-1.48-4.52-4.44Z"/>
      <g>
        <path class="cls-4" d="M637.05,107.34c-3.13.17-5.48.26-9.13.26-1.1,0-2.17-.01-3.24-.03,0,.17.02.34.02.51,0,1.12-.18,2.17-.51,3.13.06.07.12.14.16.22,1.48,2.61,1.65,12.61,1.65,18v10c0,13.22-4.78,23.14-17.4,23.14-13.31,0-17.66-9.22-17.66-23.22v-18.79c0-4.74.05-7.39.82-8.91-.35-.96-.54-2.03-.56-3.2-.02-.29-.03-.59-.02-.88-1.24.02-2.48.04-3.81.04-3.48,0-6.44-.09-10.79-.26-.52.26-.7,1.74-.17,2.09l2.17.17c5.04.44,5.22,1.91,5.22,10.96v20.53c0,10.35,2.17,16.7,6.78,20.53,4.26,3.65,10.26,4.78,16.26,4.78,6.44,0,12.87-2.26,16.61-6.35,4.87-5.22,6.09-13.22,6.09-20.79v-9.83c0-4.87,0-14.87,1.22-17.74.52-1.13,2.17-1.91,4.35-2.09l2.09-.17c.43-.52.52-1.65-.17-2.09Z"/>
        <path class="cls-4" d="M617.83,109.42l2.17.17c.16.01.32.03.47.05.14-.49.22-1.02.22-1.58,0-.2-.02-.41-.04-.62-.88-.03-1.77-.07-2.66-.12-.52.35-.7,1.48-.17,2.09Z"/>
        <path class="cls-4" d="M595.38,109.68c.25-.03.51-.06.79-.08l2.09-.17c.52-.35.35-1.83-.17-2.09-1.03.04-1.98.08-2.87.11-.02.26-.03.53,0,.8,0,.53.07,1,.17,1.43Z"/>
      </g>
    </g>
  </g>
  <g id="Ebene_25_Kopie" data-name="Ebene 25 Kopie">
    <path class="cls-3" d="M89.52,86.74c2.26,3.37,3.61,5.47,4.05,6.31.44.83.66,1.73.66,2.7-.14.79-.51,1.34-1.11,1.66-.6.32-1.11.49-1.52.49-2.31-.14-4.3-.88-5.96-2.22-1.71-1.39-3.06-2.51-4.05-3.36-.99-.86-2.51-2.52-4.54-4.99-2.03-2.47-3.72-5.07-5.06-7.8-.09.37-.24.94-.45,1.7-.21.76-.38,1.44-.52,2.04l-.28.9c-.37,1.57-1.64,2.36-3.81,2.36-1.34,0-2.75-.49-4.23-1.46l-.42,8.66,4.16.69c.55,0,1.48-.1,2.77-.31,1.29-.21,2.1-.31,2.43-.31,1.62,0,2.54.39,2.77,1.18.05.28.18,1.25.42,2.91h-1.66c-.18-.09-.38-.21-.59-.35-.21-.14-.41-.25-.59-.35-.19-.09-.39-.14-.62-.14-.28,0-.52.03-.73.1-.21.07-.45.18-.73.35s-.51.29-.69.38h-31.4c-.18-.09-.43-.23-.73-.42-.3-.18-.58-.32-.83-.42-.25-.09-.52-.14-.8-.14-.32,0-.69.15-1.11.45-.42.3-.79.48-1.11.52-1.8,0-2.7-.51-2.7-1.53,0-.69.5-1.28,1.49-1.77.99-.48,2.21-.73,3.64-.73.32,0,.94.07,1.84.21.9.14,1.72.25,2.46.35l1.18.21c.28,0,.63.01,1.07.03.44.02.75.03.94.03,1.15,0,2.52-.18,4.09-.55,1.99-7.25,2.98-11,2.98-11.23,0-3.1-.14-9.96-.42-20.58l-4.57-9.43c-1.02-2.13-1.62-4.78-1.8-7.97-.18-3.19-.35-5.13-.49-5.82-.65-3-1.34-4.5-2.08-4.5-.09,0-.38.03-.87.1s-.87.1-1.14.1c-.37,0-.79.01-1.25.03-.46.02-.91.05-1.35.07-.44.02-.84.05-1.21.07-.37.02-.67.06-.9.11h-.42c-.79,0-1.18-.42-1.18-1.25,0-.46.21-.81.62-1.04,3.6-2.03,6.09-3.25,7.45-3.64,1.36-.39,3.96-.59,7.8-.59h8.25c.32,0,.61.12.87.35.25.23.38.51.38.83v.14c.09.6.14,1.4.14,2.39s.06,1.9.17,2.7c.12.81.33,1.56.66,2.25.74,1.57,1.55,3.05,2.43,4.44.88,1.39,1.59,2.44,2.15,3.15.55.72,1.64,2.07,3.26,4.05.97,1.2,2.63,2.83,4.99,4.89,2.36,2.06,4.13,3.99,5.34,5.79,8.32,12.43,14.58,22.32,18.78,29.66.09.28.14.49.14.62,0,.32-.13.6-.38.83-.25.23-.54.35-.87.35-.23,0-.51-.11-.83-.35-1.06-1.06-2.52-2.38-4.37-3.95ZM49.87,50.71c0-.88.28-1.58.83-2.11.55-.53,1.27-.8,2.15-.8.42,0,.91.08,1.49.24.58.16,1.1.24,1.56.24,2.17-.23,3.49-.44,3.95-.62.46-.18.99-.72,1.59-1.59-1.9-2.4-3.49-4.99-4.78-7.76-.37-.83-.62-1.62-.76-2.36-.14-.74-.22-1.65-.24-2.74-.02-1.08-.06-1.79-.1-2.11h-.14c-.92,0-2.15-.01-3.67-.03-1.53-.02-2.63-.03-3.33-.03-2.68,0-4.55.07-5.61.21-1.06.14-2.31.51-3.74,1.11l-.07.07c.97-.14,1.59-.21,1.87-.21.79,0,1.46.28,2.01.83.23.23.45.47.66.73s.39.53.55.83c.16.3.29.53.38.69.09.16.18.45.28.87.09.42.15.67.17.76.02.09.09.39.21.9.11.51.17.79.17.83.18,1.02.35,3,.49,5.96.14,2.96.67,5.38,1.59,7.28l4.5,9.22c1.76,3.6,3.51,7.08,5.27,10.43,1.76,3.35,3.51,6.6,5.27,9.74.97,1.29,1.74,2.1,2.32,2.43.58.32,1.3.48,2.18.48.83,0,1.34-.25,1.53-.76.83-3.37,1.41-5.89,1.73-7.55-.28-.6-.76-1.59-1.46-2.98-1.8-1.02-3.47-2.19-4.99-3.53-.65-.6-1.26-1.18-1.84-1.73-.58-.55-1.16-1.14-1.73-1.77-.58-.62-1.06-1.14-1.46-1.56-.39-.42-.88-1-1.46-1.77-.58-.76-.99-1.3-1.25-1.63-.25-.32-.69-.94-1.32-1.84-.62-.9-1.03-1.48-1.21-1.73-.18-.25-.65-.94-1.39-2.04-.74-1.11-1.2-1.8-1.39-2.08-.55-.83-.83-1.66-.83-2.49ZM46.96,33.45c.51-.46,1.11-.69,1.8-.69s1.26.28,1.7.83c.44.55.66,1.2.66,1.94,0,.6-.29,1.06-.87,1.39-.58.32-1.21.48-1.91.48-.6,0-1.11-.22-1.52-.66-.42-.44-.62-.98-.62-1.63s.25-1.2.76-1.66ZM52.23,85.08c0,.09-.2.86-.59,2.29-.39,1.43-.8,2.9-1.21,4.4-.42,1.5-.65,2.32-.69,2.46,1.11.32,2.08.53,2.91.62.18,0,.45.01.8.04.35.02.59.03.73.03,1.25,0,2.47-.21,3.67-.62,1.2-.42,1.87-.62,2.01-.62l.35-6.24-7.97-2.36ZM63.04,48.14c-.6.6-1.1,1.04-1.49,1.32-.39.28-1.1.55-2.11.83-1.02.28-2.26.42-3.74.42-.46,0-1.02-.08-1.66-.24-.65-.16-1.04-.24-1.18-.24-.37,0-.55.16-.55.49s.14.72.42,1.18c.28.42.8,1.19,1.56,2.32.76,1.13,1.27,1.87,1.52,2.22.25.35.7.98,1.35,1.91.65.92,1.12,1.58,1.42,1.98.3.39.76.96,1.39,1.7.62.74,1.18,1.36,1.66,1.87s1.05,1.09,1.7,1.73c.65.65,1.34,1.29,2.08,1.94,1.71,1.57,4.29,3.25,7.73,5.03,3.44,1.78,6.13,3.36,8.07,4.75,1.15.83,2.45,1.76,3.88,2.77,1.43,1.02,2.66,1.92,3.67,2.7-2.49-4.62-7.07-11.9-13.72-21.83-1.11-1.62-2.81-3.44-5.09-5.47-2.29-2.03-3.98-3.72-5.09-5.06l-1.8-2.29ZM52.37,67.48c.18,6.75.28,11.81.28,15.18l7.69,2.29.07-2.36c-.32-.6-.64-1.17-.94-1.7-.3-.53-.65-1.14-1.04-1.84s-.83-1.49-1.32-2.39c-.49-.9-.98-1.82-1.49-2.77-.51-.95-1.05-1.99-1.63-3.12-.58-1.13-1.12-2.23-1.63-3.29ZM72.74,75.59c1.76,3.65,3.61,6.8,5.58,9.46,1.96,2.66,4.91,5.58,8.84,8.77,1.71,1.34,2.98,2.01,3.81,2.01.23,0,.42-.05.55-.14.14-.09.23-.18.28-.28l.07-.07c-.28-.79-.61-1.5-1.01-2.15s-.89-1.4-1.49-2.25c-.6-.85-1.11-1.63-1.53-2.32l-3.74-6.03-4.37-3.4c-1.71-1.29-4.02-2.68-6.93-4.16l-.07.55Z"/>
    <path class="cls-3" d="M141.28,77.8c-.14-.23-.21-.49-.21-.76,0-.37.16-.72.49-1.04.74-.65,2.34-2.02,4.82-4.12,2.47-2.1,4.49-3.92,6.06-5.44,1.48-1.43,3.53-3.67,6.17-6.72,2.63-3.05,5.01-5.52,7.14-7.42.28-.23.79-.69,1.52-1.39.74-.69,1.24-1.16,1.49-1.39.25-.23.69-.62,1.32-1.18.62-.55,1.09-.94,1.39-1.14.3-.21.74-.53,1.32-.97.58-.44,1.1-.79,1.56-1.04.46-.25,1-.54,1.63-.87.62-.32,1.26-.62,1.91-.9,1.8-.74,3.81-1.11,6.03-1.11.28,0,.69.01,1.25.03.55.02.97.03,1.25.03.46,0,1.29-.05,2.49-.14h.14c.42,0,.76.14,1.04.42.23.32.35.62.35.9v.35c-.23,1.16-.49,2.51-.76,4.05-.28,1.55-.54,2.95-.8,4.19-.25,1.25-.59,2.59-1,4.02-.28.97-.7,2.76-1.28,5.37-.58,2.61-1.18,4.7-1.8,6.27-.62,1.57-1.56,3.21-2.81,4.92-1.48,2.08-3.06,3.63-4.75,4.64-1.69,1.02-4.08,2.08-7.17,3.19-1.85.69-4.27,1.07-7.28,1.14-3,.07-4.92.17-5.75.31-.28.05-3.79.79-10.54,2.22h-.35c-.46,0-.83-.21-1.11-.62l-3.74-5.82ZM146.83,81.34c5.64-1.2,8.89-1.87,9.77-2.01,1.34-.18,3.33-.3,5.96-.35,2.63-.05,4.8-.37,6.51-.97,1.94-.74,3.4-1.32,4.37-1.73.97-.42,2.04-1.06,3.22-1.94,1.18-.88,2.21-1.94,3.08-3.19,1.11-1.57,1.95-3.07,2.53-4.5.58-1.43,1.13-3.37,1.66-5.82.53-2.45.96-4.25,1.28-5.41.37-1.34,1.06-4.78,2.08-10.33-.19.05-.49.07-.9.07-.32,0-.76-.01-1.32-.03-.55-.02-.95-.03-1.18-.03-1.9,0-3.56.3-4.99.9-.79.37-1.56.76-2.32,1.18-.76.42-1.35.75-1.77,1-.42.26-1.05.72-1.91,1.39-.86.67-1.38,1.09-1.56,1.25-.18.16-.82.74-1.91,1.73-1.09.99-1.72,1.58-1.91,1.77-1.94,1.76-4.2,4.14-6.79,7.14-2.59,3-4.71,5.31-6.38,6.93-.97.92-4.34,3.9-10.12,8.94l2.56,4.02ZM165.96,66.44c-.28.32-.6.89-.97,1.7-.37.81-.6,1.31-.69,1.49-.14.18-.49,1.09-1.04,2.7.28-.05.74-.07,1.39-.07h.07c.37,0,.69.13.97.38.28.25.42.57.42.94v.07c0,.37-.13.68-.38.94-.25.25-.57.38-.94.38-1.76.09-2.84.14-3.26.14-.14,0-.37.02-.69.07-.32.05-.58.07-.76.07-.6,0-1.16-.14-1.66-.42-.88-.42-1.32-1.15-1.32-2.22,0-.05.01-.17.03-.38.02-.21.03-.33.03-.38.23-.79.88-1.83,1.94-3.12,2.22-2.77,4.27-5.1,6.17-7,2.63-2.68,4.94-4.78,6.93-6.31l8.66-6.38c.23-.23.53-.35.9-.35.42,0,.76.14,1.04.42.23.32.35.65.35.97,0,.42-.16.76-.49,1.04l-8.59,6.38c-.6.46-1.2.99-1.8,1.59-.6.6-1.23,1.26-1.87,1.97-.65.72-1.11,1.21-1.39,1.49l-3.05,3.88Z"/>
    <path class="cls-3" d="M33.73,132.07c.28-.42.67-.62,1.18-.62h.07c.46,0,.83.18,1.11.55l3.6,5.55,3.33-5.55c.28-.46.67-.69,1.18-.69s.9.21,1.18.62l3.6,5.61,3.4-5.55c.28-.46.67-.69,1.18-.69s.9.21,1.18.62l3.6,5.61,3.47-5.61c.28-.46.67-.69,1.18-.69s.9.21,1.18.62l3.6,5.55,3.33-5.48c.28-.42.65-.62,1.11-.62h.07c.51,0,.88.18,1.11.55l3.67,5.61,3.4-5.55c.28-.46.67-.69,1.18-.69s.9.21,1.18.62l3.6,5.55,3.33-5.55c.28-.42.67-.62,1.18-.62s.88.21,1.11.62l4.78,7.28c.14.18.21.44.21.76,0,.51-.18.9-.55,1.18-.28.14-.53.21-.76.21-.51,0-.9-.21-1.18-.62l-3.53-5.47-3.4,5.54c-.32.46-.72.69-1.18.69-.69,0-1.13-.32-1.32-.97l-3.4-5.27-3.4,5.54c-.32.46-.72.69-1.18.69-.55,0-.97-.23-1.25-.69l-3.53-5.54-3.4,5.61c-.28.42-.67.62-1.18.62-.32,0-.58-.07-.76-.21-.23-.14-.44-.42-.62-.83l-3.33-5.2-3.4,5.54c-.32.46-.72.69-1.18.69-.55,0-.99-.23-1.32-.69l-3.53-5.47-3.4,5.54c-.32.46-.72.69-1.18.69s-.86-.23-1.18-.69l-.07-.07-3.53-5.47-3.4,5.54c-.32.46-.72.69-1.18.69-.51,0-.88-.21-1.11-.62h-.07l-3.53-5.54-3.4,5.61c-.23.42-.62.62-1.18.62-.37,0-.69-.14-.97-.42-.28-.28-.42-.6-.42-.97,0-.23.07-.46.21-.69l4.51-7.41ZM34.14,161.59c.28-.37.67-.6,1.18-.69h.07c.46,0,.83.21,1.11.62l3.6,5.48,3.33-5.55c.28-.42.67-.62,1.18-.62s.9.21,1.18.62l3.6,5.55,3.4-5.55c.28-.42.67-.62,1.18-.62s.9.21,1.18.62l3.6,5.61,3.47-5.68c.28-.42.67-.62,1.18-.62.55,0,.92.21,1.11.62l3.67,5.55,3.33-5.48c.18-.37.55-.6,1.11-.69h.07c.55,0,.92.21,1.11.62l3.67,5.61,3.4-5.61c.28-.42.67-.62,1.18-.62s.9.21,1.18.62l3.6,5.55,3.33-5.55c.28-.42.65-.62,1.11-.62h.07c.51,0,.88.21,1.11.62l4.78,7.28c.14.18.21.44.21.76,0,.51-.18.9-.55,1.18-.28.14-.55.21-.83.21-.46,0-.83-.21-1.11-.62l-3.53-5.47-3.4,5.54c-.28.42-.67.62-1.18.62-.69,0-1.13-.3-1.32-.9l-3.4-5.27-3.4,5.54c-.32.46-.72.69-1.18.69-.55,0-.97-.23-1.25-.69l-3.53-5.54-3.4,5.61c-.28.42-.67.62-1.18.62-.32,0-.58-.07-.76-.21-.28-.18-.49-.46-.62-.83l-3.33-5.2-3.4,5.54c-.32.46-.72.69-1.18.69-.55,0-.99-.23-1.32-.69l-3.53-5.47-3.4,5.54c-.32.46-.72.69-1.18.69s-.86-.23-1.18-.69l-.07-.07-3.53-5.47-3.4,5.54c-.32.46-.72.69-1.18.69-.51,0-.88-.21-1.11-.62h-.07l-3.53-5.55-3.4,5.61c-.23.42-.62.62-1.18.62-.37,0-.69-.14-.97-.42-.28-.28-.42-.6-.42-.97,0-.23.07-.46.21-.69l4.51-7.42ZM34.28,190.77c.23-.46.6-.69,1.11-.69h.07c.46,0,.83.21,1.11.62l3.6,5.47,3.33-5.54c.28-.42.67-.62,1.18-.62s.9.18,1.18.55l3.6,5.61,3.4-5.54c.28-.42.67-.62,1.18-.62s.9.18,1.18.55l3.6,5.61,3.47-5.61c.28-.42.67-.62,1.18-.62s.9.18,1.18.55l3.6,5.61,3.33-5.47c.32-.46.69-.69,1.11-.69h.07c.51,0,.88.21,1.11.62l3.67,5.61,3.4-5.61c.28-.42.67-.62,1.18-.62s.9.18,1.18.55l3.6,5.54,3.33-5.47c.28-.42.67-.65,1.18-.69.55,0,.92.21,1.11.62l4.78,7.35c.14.18.21.44.21.76,0,.46-.18.83-.55,1.11-.37.18-.62.28-.76.28-.46,0-.86-.21-1.18-.62l-3.53-5.54-3.4,5.61c-.28.42-.67.62-1.18.62-.69,0-1.13-.32-1.32-.97l-3.4-5.27-3.4,5.61c-.28.42-.67.62-1.18.62-.6,0-1.02-.23-1.25-.69l-3.53-5.47-3.4,5.54c-.32.46-.72.69-1.18.69-.23,0-.49-.07-.76-.21-.28-.23-.49-.51-.62-.83l-3.33-5.27-3.4,5.61c-.28.42-.67.62-1.18.62-.6,0-1.04-.21-1.32-.62l-3.53-5.54-3.4,5.61c-.28.42-.67.62-1.18.62s-.9-.21-1.18-.62c0-.05-.02-.07-.07-.07l-3.53-5.54-3.4,5.61c-.28.42-.67.62-1.18.62s-.88-.21-1.11-.62h-.07l-3.53-5.47-3.4,5.54c-.23.46-.62.69-1.18.69-.37,0-.69-.14-.97-.42-.28-.28-.42-.6-.42-.97,0-.28.07-.51.21-.69l4.57-7.42Z"/>
    <path class="cls-4" d="M169.67,186.06c-4.21,0-6.31-2.05-6.31-6.17,0-1.39.32-3.23.97-5.54l-1.39-.28c-.6-.18-.9-.62-.9-1.32s.39-1.08,1.18-1.18h3.6c.37-.46.83-1.16,1.39-2.08v-28.14c-.05-.69-.16-1.36-.35-2.01-.18-.65-.54-1.43-1.07-2.36-.53-.92-1.42-1.67-2.67-2.25-1.25-.58-2.8-.87-4.64-.87-2.45,0-4.59.69-6.41,2.08-1.83,1.39-2.74,3.14-2.74,5.27v23.56h7.49c.92,0,1.39.46,1.39,1.39v32.92c0,.88-.46,1.32-1.39,1.32h-18.37c-.37,0-.69-.13-.97-.38s-.42-.57-.42-.94v-32.92c0-.42.14-.75.42-1,.28-.25.6-.38.97-.38h8.18v-23.56c0-2.91,1.18-5.33,3.53-7.24,2.36-1.92,5.13-2.88,8.32-2.88.46,0,.99.03,1.59.1.6.07,1.53.29,2.77.66,1.25.37,2.34.89,3.29,1.56.95.67,1.81,1.7,2.6,3.08.79,1.39,1.2,3.01,1.25,4.85v23.01c1.25-2.22,3.04-4.13,5.37-5.75,2.33-1.62,4.49-2.73,6.48-3.33v-8.32c-.42-.32-.9-.73-1.46-1.21-.55-.49-1.34-1.24-2.36-2.25-1.02-1.02-1.86-2.12-2.53-3.33-.67-1.2-1.01-2.33-1.01-3.39,0-1.25.25-2.18.76-2.81.51-.62,1.06-.94,1.66-.94.74,0,1.5.32,2.29.97,0-.37.07-.73.21-1.07.14-.35.56-.73,1.28-1.14.72-.42,1.72-.62,3.01-.62,1.15,0,2.07.22,2.74.66.67.44,1.05.82,1.14,1.14.09.32.14.62.14.9.88-.6,1.64-.9,2.29-.9.83,0,1.44.39,1.84,1.18s.59,1.69.59,2.7c0,2.73-2.36,6.05-7.07,9.98l-.07.07v7.97c.14,0,.47-.07,1.01-.21.53-.14.94-.21,1.21-.21,2.4,0,3.6,1.16,3.6,3.47,0,2.54-1.94,4.5-5.82,5.89v34.93c0,.46-.16.86-.49,1.18-.32.32-.72.49-1.18.49-.51,0-.94-.16-1.28-.49-.35-.32-.52-.71-.52-1.18v-33.82c-1.57.51-2.85,1.16-3.85,1.94-.99.79-2.71,2.4-5.16,4.85h2.22c.69,0,1.09.35,1.18,1.04,0,.69-.3,1.13-.9,1.32l-1.39.35c.65,2.31.97,4.14.97,5.47,0,.79-.05,1.42-.14,1.91-.09.48-.3,1.11-.62,1.87-.32.76-.95,1.35-1.87,1.77-.92.42-2.13.62-3.6.62ZM140.83,167.55v30.15h15.59v-30.15h-15.59ZM148.39,170.19c1.39,0,2.57.51,3.57,1.53.99,1.02,1.49,2.22,1.49,3.6s-.47,2.5-1.42,3.47c-.95.97-2.09,1.46-3.43,1.46s-2.55-.49-3.5-1.46c-.95-.97-1.42-2.15-1.42-3.53s.45-2.57,1.35-3.57c.9-.99,2.02-1.49,3.36-1.49ZM148.53,182.04c1.39,0,2.56.51,3.53,1.53.97,1.02,1.46,2.24,1.46,3.67,0,1.34-.47,2.5-1.42,3.47-.95.97-2.09,1.45-3.43,1.45s-2.49-.49-3.47-1.49c-.97-.99-1.46-2.18-1.46-3.57s.46-2.58,1.39-3.57c.92-.99,2.06-1.49,3.4-1.49ZM150.5,173.2c-.58-.58-1.26-.87-2.04-.87s-1.44.29-1.98.87c-.53.58-.8,1.26-.8,2.04s.28,1.47.83,2.04c.55.58,1.22.87,2.01.87s1.46-.28,2.01-.83c.55-.55.83-1.22.83-2.01,0-.83-.29-1.54-.87-2.11ZM172.37,174.07h-5.54c-.05.28-.16.79-.35,1.52-.19.74-.35,1.49-.49,2.25-.14.76-.21,1.44-.21,2.04,0,1.25.29,2.18.87,2.81.58.62,1.56.94,2.95.94.74,0,1.32-.03,1.73-.1.42-.07.88-.4,1.39-1.01.51-.6.76-1.48.76-2.63,0-.6-.07-1.26-.21-1.97-.14-.72-.31-1.51-.52-2.39-.21-.88-.34-1.36-.38-1.45ZM170.98,169.49v1.66c.55-.55,1.3-1.33,2.25-2.32.95-.99,1.8-1.84,2.56-2.53.76-.69,1.65-1.36,2.67-2.01,1.11-.74,2.56-1.39,4.37-1.94v-4.5c-1.85.65-3.86,1.8-6.03,3.47-.42.32-.81.66-1.18,1-.37.35-.73.74-1.07,1.18-.35.44-.62.79-.83,1.04-.21.25-.47.67-.8,1.25-.32.58-.53.95-.62,1.11-.09.16-.32.61-.69,1.35-.37.74-.58,1.16-.62,1.25ZM184.5,145.44c4.57-3.65,6.86-6.56,6.86-8.73,0-.83-.14-1.39-.42-1.66-.83.28-1.52.79-2.08,1.52-.55.74-.95,1.46-1.18,2.15-.23.69-.61,1.32-1.14,1.87-.53.55-1.24.83-2.11.83s-1.61-.28-2.18-.83c-.58-.55-.98-1.17-1.21-1.84-.23-.67-.61-1.36-1.14-2.08-.53-.71-1.17-1.21-1.91-1.49-.28.14-.42.67-.42,1.59,0,.37.02.65.07.83.18.69.52,1.41,1.01,2.15.49.74,1.05,1.43,1.7,2.08.65.65,1.24,1.2,1.77,1.66.53.46,1.05.9,1.56,1.32l.83.62ZM184.98,133.24c-.6,0-1.06.02-1.39.07-.32.05-.66.28-1,.69-.35.42-.52,1.04-.52,1.87,1.48,2.31,2.26,3.51,2.36,3.6.32-.37.68-.85,1.07-1.46.39-.6.72-1.12.97-1.56.25-.44.38-.68.38-.73-.05-1.2-.16-1.92-.35-2.15-.18-.23-.69-.35-1.53-.35ZM186.3,157.09v4.16c2.26-.92,3.4-2.06,3.4-3.4,0-.37-.06-.62-.17-.76-.12-.14-.45-.21-1.01-.21-.46,0-1.2.07-2.22.21Z"/>
    <path class="cls-1" d="M189.45,7.99h14c.27,0,.52.11.71.29l14.39,14.39c.19.19.29.44.29.71v10.02"/>
    <rect class="cls-2" x="17" y="17" width="92.5" height="92.5" rx="10" ry="10"/>
    <rect class="cls-2" x="17" y="119.5" width="92.5" height="92.5" rx="10" ry="10"/>
    <rect class="cls-2" x="119.5" y="119.5" width="92.5" height="92.5" rx="10" ry="10"/>
    <path class="cls-1" d="M186.02,2H22C11,2,2,11,2,22v185c0,11,9,20,20,20h185c11,0,20-9,20-20V35.05c0-.55-.44-.98-.98-.99-21.23-.41-38.36-14.09-39-31.08-.02-.54-.45-.98-.99-.98Z"/>
    <path class="cls-2" d="M174.64,17h-45.14c-5.52,0-10,4.48-10,10v72.5c0,5.52,4.48,10,10,10h72.5c5.52,0,10-4.48,10-10v-54.29c0-.46-.32-.86-.77-.97-16.45-3.94-29.68-13.88-35.7-26.67-.16-.35-.51-.57-.9-.57Z"/>
  </g>
</svg>