<?xml version="1.0" encoding="UTF-8"?>
<svg id="Ebene_2" data-name="Ebene 2" xmlns="http://www.w3.org/2000/svg" viewBox="0 0 801.06 215.61">
  <defs>
    <style>
      .cls-1 {
        letter-spacing: .05em;
      }

      .cls-1, .cls-2 {
        font-family: AGaramondPro-Regular, 'Adobe Garamond Pro';
        font-size: 82px;
      }

      .cls-3 {
        stroke: #d87b00;
      }

      .cls-3, .cls-4, .cls-5, .cls-6 {
        fill: none;
        stroke-miterlimit: 10;
      }

      .cls-3, .cls-4, .cls-6 {
        stroke-width: 3px;
      }

      .cls-2 {
        letter-spacing: .22em;
      }

      .cls-2, .cls-7, .cls-8 {
        fill: #d87b00;
      }

      .cls-8 {
        font-family: NotoSansCondensed-Bold, 'Noto Sans Condensed';
        font-size: 25.79px;
        font-weight: 700;
        letter-spacing: .54em;
      }

      .cls-4 {
        stroke-linecap: round;
      }

      .cls-4, .cls-5, .cls-6 {
        stroke: #000;
      }

      .cls-9 {
        fill: #7f7f7f;
        font-family: NotoSansCondensed-Regular, 'Noto Sans Condensed';
        font-size: 21px;
        letter-spacing: .36em;
      }

      .cls-5 {
        stroke-width: 4px;
      }
    </style>
  </defs>
  <g id="Ebene_15" data-name="Ebene 15">
    <g id="Ebene_17" data-name="Ebene 17">
      <text class="cls-1" transform="translate(211.49 85.82)"><tspan x="0" y="0">INSCHRIFTEN</tspan></text>
      <text class="cls-9" transform="translate(212.37 192.71)"><tspan x="0" y="0">FORMELN ALTÄGYPTISCHER INSCHRIFTEN</tspan></text>
      <text class="cls-2" transform="translate(212.84 161.86)"><tspan x="0" y="0">SCHLÜSSEL</tspan></text>
    </g>
    <g id="Ebene_16" data-name="Ebene 16">
      <path class="cls-5" d="M167.19,34.73c-2.17-.1-4.29-.73-6.16-1.84-2.72-1.62-4.88-4.02-6.21-6.9-.76-1.64-1.23-3.41-1.38-5.21l-1.49-17.2c-.08-.89-.82-1.58-1.72-1.58H16.17c-7.83,0-14.17,6.35-14.17,14.17v183.26c0,7.83,6.35,14.17,14.17,14.17h151.66c7.83,0,14.17-6.35,14.17-14.17V36.65c0-.94-.76-1.71-1.7-1.72l-13.12-.19Z"/>
      <rect class="cls-6" x="22.22" y="25.52" width="65.94" height="59.82" rx="1.44" ry="1.44"/>
      <path d="M71.48,70c1.4,2.09,2.24,3.4,2.51,3.91.27.52.41,1.07.41,1.68-.09.49-.32.83-.69,1.03-.37.2-.69.3-.95.3-1.43-.09-2.67-.54-3.7-1.38-1.06-.86-1.9-1.55-2.51-2.08-.62-.53-1.55-1.56-2.82-3.1-1.26-1.53-2.31-3.14-3.14-4.84-.06.23-.15.58-.28,1.05-.13.47-.24.9-.32,1.27l-.17.56c-.23.97-1.02,1.46-2.36,1.46-.83,0-1.71-.3-2.62-.9l-.26,5.37,2.58.43c.34,0,.92-.06,1.72-.19.8-.13,1.3-.19,1.5-.19,1,0,1.58.24,1.72.73.03.17.11.77.26,1.8h-1.03c-.11-.06-.24-.13-.37-.21-.13-.09-.25-.16-.37-.22-.12-.06-.24-.09-.39-.09-.17,0-.32.02-.45.06-.13.04-.28.11-.45.22s-.32.18-.43.24h-19.47c-.11-.06-.27-.14-.45-.26-.19-.11-.36-.2-.52-.26-.16-.06-.32-.09-.49-.09-.2,0-.43.09-.69.28-.26.19-.49.29-.69.32-1.12,0-1.68-.32-1.68-.95,0-.43.31-.79.92-1.1.62-.3,1.37-.45,2.26-.45.2,0,.58.04,1.14.13.56.09,1.07.16,1.53.21l.73.13c.17,0,.39,0,.67.02.27.01.47.02.58.02.72,0,1.56-.11,2.54-.34,1.23-4.5,1.85-6.82,1.85-6.96,0-1.92-.09-6.18-.26-12.77l-2.84-5.85c-.63-1.32-1-2.97-1.12-4.94-.11-1.98-.22-3.18-.3-3.61-.4-1.86-.83-2.79-1.29-2.79-.06,0-.24.02-.54.06s-.54.06-.71.06c-.23,0-.49,0-.77.02-.29.01-.57.03-.84.04-.27.01-.52.03-.75.04-.23.01-.42.04-.56.07h-.26c-.49,0-.73-.26-.73-.77,0-.29.13-.5.39-.64,2.24-1.26,3.78-2.01,4.62-2.26.85-.24,2.46-.37,4.84-.37h5.12c.2,0,.38.07.54.21.16.14.24.32.24.52v.09c.06.37.09.87.09,1.48s.04,1.18.11,1.68c.07.5.21.97.41,1.4.46.97.96,1.89,1.5,2.75.54.86.99,1.51,1.33,1.96.34.44,1.02,1.28,2.02,2.51.6.75,1.63,1.76,3.09,3.03,1.46,1.28,2.56,2.47,3.31,3.59,5.16,7.71,9.04,13.84,11.65,18.4.06.17.09.3.09.39,0,.2-.08.37-.24.52-.16.14-.34.21-.54.21-.14,0-.32-.07-.52-.21-.66-.66-1.56-1.48-2.71-2.45ZM46.89,47.65c0-.54.17-.98.52-1.31.34-.33.79-.49,1.33-.49.26,0,.57.05.92.15.36.1.68.15.97.15,1.35-.14,2.16-.27,2.45-.39.29-.11.62-.44.99-.99-1.18-1.49-2.16-3.1-2.97-4.81-.23-.52-.39-1-.47-1.46-.09-.46-.14-1.02-.15-1.7-.01-.67-.04-1.11-.06-1.31h-.09c-.57,0-1.33,0-2.28-.02-.95-.01-1.63-.02-2.06-.02-1.66,0-2.82.04-3.48.13-.66.09-1.43.32-2.32.69l-.04.04c.6-.09.99-.13,1.16-.13.49,0,.9.17,1.25.52.14.14.28.29.41.45s.24.33.34.52c.1.19.18.33.24.43.06.1.11.28.17.54.06.26.09.42.11.47.01.06.06.24.13.56.07.32.11.49.11.52.11.63.22,1.86.3,3.7.09,1.83.42,3.34.99,4.51l2.79,5.72c1.09,2.24,2.18,4.39,3.27,6.47,1.09,2.08,2.18,4.09,3.27,6.04.6.8,1.08,1.3,1.44,1.5.36.2.81.3,1.35.3.52,0,.83-.16.95-.47.52-2.09.87-3.65,1.07-4.68-.17-.37-.47-.99-.9-1.85-1.12-.63-2.15-1.36-3.09-2.19-.4-.37-.78-.73-1.14-1.07-.36-.34-.72-.71-1.07-1.1-.36-.39-.66-.71-.9-.97-.24-.26-.54-.62-.9-1.1-.36-.47-.62-.81-.77-1.01-.16-.2-.43-.58-.82-1.14-.39-.56-.64-.92-.75-1.07-.11-.16-.4-.58-.86-1.27-.46-.69-.75-1.12-.86-1.29-.34-.52-.52-1.03-.52-1.55ZM45.09,36.95c.31-.29.69-.43,1.12-.43s.78.17,1.05.52c.27.34.41.75.41,1.2,0,.37-.18.66-.54.86-.36.2-.75.3-1.18.3-.37,0-.69-.14-.95-.41-.26-.27-.39-.61-.39-1.01s.16-.75.47-1.03ZM48.35,68.97c0,.06-.12.53-.37,1.42-.24.89-.49,1.8-.75,2.73-.26.93-.4,1.44-.43,1.53.69.2,1.29.33,1.81.39.11,0,.28,0,.49.02.22.01.37.02.45.02.77,0,1.53-.13,2.28-.39.74-.26,1.16-.39,1.25-.39l.21-3.87-4.94-1.46ZM55.06,46.06c-.37.37-.68.64-.92.82-.24.17-.68.34-1.31.52-.63.17-1.4.26-2.32.26-.29,0-.63-.05-1.03-.15-.4-.1-.64-.15-.73-.15-.23,0-.34.1-.34.3s.09.44.26.73c.17.26.49.74.97,1.44.47.7.79,1.16.95,1.37.16.22.44.61.84,1.18.4.57.69.98.88,1.23.19.24.47.6.86,1.05.39.46.73.85,1.03,1.16s.65.67,1.05,1.07c.4.4.83.8,1.29,1.2,1.06.97,2.66,2.01,4.79,3.12,2.13,1.1,3.8,2.08,5.01,2.94.72.52,1.52,1.09,2.41,1.72.89.63,1.65,1.19,2.28,1.68-1.55-2.87-4.38-7.38-8.51-13.54-.69-1-1.74-2.13-3.16-3.4-1.42-1.26-2.47-2.31-3.16-3.14l-1.12-1.42ZM48.44,58.05c.11,4.18.17,7.32.17,9.41l4.77,1.42.04-1.46c-.2-.37-.39-.72-.58-1.05-.19-.33-.4-.71-.65-1.14s-.52-.92-.82-1.48c-.3-.56-.61-1.13-.92-1.72-.32-.59-.65-1.23-1.01-1.93-.36-.7-.69-1.38-1.01-2.04ZM61.08,63.08c1.09,2.26,2.24,4.22,3.46,5.87,1.22,1.65,3.04,3.46,5.48,5.44,1.06.83,1.85,1.25,2.36,1.25.14,0,.26-.03.34-.09.09-.06.14-.11.17-.17l.04-.04c-.17-.49-.38-.93-.62-1.33s-.55-.87-.92-1.4c-.37-.53-.69-1.01-.95-1.44l-2.32-3.74-2.71-2.11c-1.06-.8-2.49-1.66-4.3-2.58l-.04.34Z"/>
      <path class="cls-6" d="M159.55,42.38c-2.17-.1-4.29-.73-6.16-1.84-2.72-1.62-4.88-4.02-6.21-6.9-.76-1.64-1.23-3.41-1.38-5.21l-.15-1.77c-.06-.64-.59-1.13-1.23-1.13h-47.15c-.8,0-1.44.65-1.44,1.44v56.93c0,.8.65,1.44,1.44,1.44h63.05c.8,0,1.44-.65,1.44-1.44v-40.27c0-.67-.54-1.22-1.22-1.23h-.99Z"/>
      <path d="M113.62,64.46c-.09-.14-.13-.3-.13-.47,0-.23.1-.44.3-.65.46-.4,1.45-1.25,2.99-2.56,1.53-1.3,2.79-2.43,3.76-3.37.92-.89,2.19-2.28,3.83-4.17,1.63-1.89,3.11-3.42,4.43-4.6.17-.14.49-.43.95-.86.46-.43.77-.72.92-.86.16-.14.43-.39.82-.73.39-.34.67-.58.86-.71.19-.13.46-.33.82-.6.36-.27.68-.49.97-.64.29-.16.62-.34,1.01-.54.39-.2.78-.39,1.18-.56,1.12-.46,2.36-.69,3.74-.69.17,0,.43,0,.77.02.34.01.6.02.77.02.29,0,.8-.03,1.55-.09h.09c.26,0,.47.09.64.26.14.2.22.39.22.56v.21c-.14.72-.3,1.55-.47,2.51-.17.96-.34,1.83-.49,2.6-.16.77-.37,1.61-.62,2.49-.17.6-.44,1.71-.8,3.33-.36,1.62-.73,2.92-1.12,3.89-.39.97-.97,1.99-1.74,3.05-.92,1.29-1.9,2.25-2.94,2.88-1.05.63-2.53,1.29-4.45,1.98-1.15.43-2.65.67-4.51.71-1.86.04-3.05.11-3.57.19-.17.03-2.35.49-6.53,1.38h-.21c-.29,0-.52-.13-.69-.39l-2.32-3.61ZM117.06,66.65c3.5-.75,5.52-1.16,6.06-1.25.83-.11,2.06-.19,3.7-.21,1.63-.03,2.98-.23,4.04-.6,1.2-.46,2.11-.82,2.71-1.07.6-.26,1.27-.66,2-1.2.73-.54,1.37-1.2,1.91-1.98.69-.97,1.21-1.91,1.57-2.79.36-.89.7-2.09,1.03-3.61.33-1.52.59-2.64.8-3.35.23-.83.66-2.97,1.29-6.4-.12.03-.3.04-.56.04-.2,0-.47,0-.82-.02-.34-.01-.59-.02-.73-.02-1.18,0-2.21.19-3.1.56-.49.23-.97.47-1.44.73-.47.26-.84.47-1.1.62-.26.16-.65.44-1.18.86-.53.42-.85.67-.97.77-.11.1-.51.46-1.18,1.07-.67.62-1.07.98-1.18,1.1-1.2,1.09-2.61,2.57-4.21,4.43s-2.92,3.3-3.95,4.3c-.6.57-2.69,2.42-6.28,5.54l1.59,2.49ZM128.92,57.41c-.17.2-.37.55-.6,1.05-.23.5-.37.81-.43.92-.09.11-.3.67-.65,1.68.17-.03.46-.04.86-.04h.04c.23,0,.43.08.6.24.17.16.26.35.26.58v.04c0,.23-.08.42-.24.58-.16.16-.35.24-.58.24-1.09.06-1.76.09-2.02.09-.09,0-.23.01-.43.04-.2.03-.36.04-.47.04-.37,0-.72-.09-1.03-.26-.54-.26-.82-.72-.82-1.37,0-.03,0-.11.02-.24.01-.13.02-.21.02-.24.14-.49.54-1.13,1.2-1.93,1.38-1.72,2.65-3.17,3.83-4.34,1.63-1.66,3.07-2.97,4.3-3.91l5.37-3.96c.14-.14.33-.21.56-.21.26,0,.47.09.64.26.14.2.22.4.22.6,0,.26-.1.47-.3.64l-5.33,3.95c-.37.29-.75.62-1.12.99-.37.37-.76.78-1.16,1.22-.4.44-.69.75-.86.92l-1.89,2.41Z"/>
      <rect class="cls-6" x="22.25" y="92.98" width="65.94" height="59.82" rx="1.44" ry="1.44"/>
      <path d="M36.91,102c.17-.26.42-.39.73-.39h.04c.29,0,.52.11.69.34l2.24,3.44,2.06-3.44c.17-.29.42-.43.73-.43s.56.13.73.39l2.24,3.48,2.11-3.44c.17-.29.42-.43.73-.43s.56.13.73.39l2.24,3.48,2.15-3.48c.17-.29.42-.43.73-.43s.56.13.73.39l2.24,3.44,2.06-3.4c.17-.26.4-.39.69-.39h.04c.31,0,.54.11.69.34l2.28,3.48,2.11-3.44c.17-.29.42-.43.73-.43s.56.13.73.39l2.24,3.44,2.06-3.44c.17-.26.42-.39.73-.39s.54.13.69.39l2.97,4.51c.09.11.13.27.13.47,0,.32-.11.56-.34.73-.17.09-.33.13-.47.13-.32,0-.56-.13-.73-.39l-2.19-3.4-2.11,3.44c-.2.29-.44.43-.73.43-.43,0-.7-.2-.82-.6l-2.11-3.27-2.11,3.44c-.2.29-.44.43-.73.43-.34,0-.6-.14-.77-.43l-2.19-3.44-2.11,3.48c-.17.26-.42.39-.73.39-.2,0-.36-.04-.47-.13-.14-.09-.27-.26-.39-.52l-2.06-3.22-2.11,3.44c-.2.29-.44.43-.73.43-.34,0-.62-.14-.82-.43l-2.19-3.4-2.11,3.44c-.2.29-.44.43-.73.43s-.53-.14-.73-.43l-.04-.04-2.19-3.4-2.11,3.44c-.2.29-.44.43-.73.43-.32,0-.54-.13-.69-.39h-.04l-2.19-3.44-2.11,3.48c-.14.26-.39.39-.73.39-.23,0-.43-.09-.6-.26-.17-.17-.26-.37-.26-.6,0-.14.04-.29.13-.43l2.79-4.6ZM37.16,120.31c.17-.23.42-.37.73-.43h.04c.29,0,.52.13.69.39l2.24,3.4,2.06-3.44c.17-.26.42-.39.73-.39s.56.13.73.39l2.24,3.44,2.11-3.44c.17-.26.42-.39.73-.39s.56.13.73.39l2.24,3.48,2.15-3.53c.17-.26.42-.39.73-.39.34,0,.57.13.69.39l2.28,3.44,2.06-3.4c.11-.23.34-.37.69-.43h.04c.34,0,.57.13.69.39l2.28,3.48,2.11-3.48c.17-.26.42-.39.73-.39s.56.13.73.39l2.24,3.44,2.06-3.44c.17-.26.4-.39.69-.39h.04c.31,0,.54.13.69.39l2.97,4.51c.09.11.13.27.13.47,0,.32-.11.56-.34.73-.17.09-.34.13-.52.13-.29,0-.52-.13-.69-.39l-2.19-3.4-2.11,3.44c-.17.26-.42.39-.73.39-.43,0-.7-.19-.82-.56l-2.11-3.27-2.11,3.44c-.2.29-.44.43-.73.43-.34,0-.6-.14-.77-.43l-2.19-3.44-2.11,3.48c-.17.26-.42.39-.73.39-.2,0-.36-.04-.47-.13-.17-.11-.3-.29-.39-.52l-2.06-3.22-2.11,3.44c-.2.29-.44.43-.73.43-.34,0-.62-.14-.82-.43l-2.19-3.4-2.11,3.44c-.2.29-.44.43-.73.43s-.53-.14-.73-.43l-.04-.04-2.19-3.4-2.11,3.44c-.2.29-.44.43-.73.43-.32,0-.54-.13-.69-.39h-.04l-2.19-3.44-2.11,3.48c-.14.26-.39.39-.73.39-.23,0-.43-.09-.6-.26s-.26-.37-.26-.6c0-.14.04-.29.13-.43l2.79-4.6ZM37.25,138.41c.14-.29.37-.43.69-.43h.04c.29,0,.52.13.69.39l2.24,3.4,2.06-3.44c.17-.26.42-.39.73-.39s.56.11.73.34l2.24,3.48,2.11-3.44c.17-.26.42-.39.73-.39s.56.11.73.34l2.24,3.48,2.15-3.48c.17-.26.42-.39.73-.39s.56.11.73.34l2.24,3.48,2.06-3.4c.2-.29.43-.43.69-.43h.04c.31,0,.54.13.69.39l2.28,3.48,2.11-3.48c.17-.26.42-.39.73-.39s.56.11.73.34l2.24,3.44,2.06-3.4c.17-.26.42-.4.73-.43.34,0,.57.13.69.39l2.97,4.56c.09.11.13.27.13.47,0,.29-.11.52-.34.69-.23.11-.39.17-.47.17-.29,0-.53-.13-.73-.39l-2.19-3.44-2.11,3.48c-.17.26-.42.39-.73.39-.43,0-.7-.2-.82-.6l-2.11-3.27-2.11,3.48c-.17.26-.42.39-.73.39-.37,0-.63-.14-.77-.43l-2.19-3.4-2.11,3.44c-.2.29-.44.43-.73.43-.14,0-.3-.04-.47-.13-.17-.14-.3-.32-.39-.52l-2.06-3.27-2.11,3.48c-.17.26-.42.39-.73.39-.37,0-.64-.13-.82-.39l-2.19-3.44-2.11,3.48c-.17.26-.42.39-.73.39s-.56-.13-.73-.39c0-.03-.01-.04-.04-.04l-2.19-3.44-2.11,3.48c-.17.26-.42.39-.73.39s-.54-.13-.69-.39h-.04l-2.19-3.4-2.11,3.44c-.14.29-.39.43-.73.43-.23,0-.43-.09-.6-.26-.17-.17-.26-.37-.26-.6,0-.17.04-.31.13-.43l2.84-4.6Z"/>
      <rect class="cls-3" x="95.83" y="92.98" width="65.94" height="59.82" rx="1.44" ry="1.44"/>
      <path class="cls-7" d="M131.22,135.48c-2.61,0-3.91-1.27-3.91-3.83,0-.86.2-2.01.6-3.44l-.86-.17c-.37-.11-.56-.39-.56-.82s.24-.67.73-.73h2.24c.23-.29.52-.72.86-1.29v-17.45c-.03-.43-.1-.85-.22-1.25-.11-.4-.34-.89-.67-1.46-.33-.57-.88-1.04-1.65-1.4-.77-.36-1.73-.54-2.88-.54-1.52,0-2.84.43-3.98,1.29-1.13.86-1.7,1.95-1.7,3.27v14.61h4.64c.57,0,.86.29.86.86v20.42c0,.54-.29.82-.86.82h-11.39c-.23,0-.43-.08-.6-.24s-.26-.35-.26-.58v-20.42c0-.26.09-.46.26-.62.17-.16.37-.24.6-.24h5.07v-14.61c0-1.81.73-3.3,2.19-4.49,1.46-1.19,3.18-1.78,5.16-1.78.29,0,.62.02.99.06.37.04.95.18,1.72.41.77.23,1.45.55,2.04.97.59.42,1.12,1.05,1.61,1.91.49.86.74,1.86.77,3.01v14.27c.77-1.37,1.88-2.56,3.33-3.57,1.45-1,2.79-1.69,4.02-2.06v-5.16c-.26-.2-.56-.45-.9-.75-.34-.3-.83-.77-1.46-1.4-.63-.63-1.15-1.32-1.57-2.06-.42-.74-.62-1.45-.62-2.11,0-.77.16-1.35.47-1.74.32-.39.66-.58,1.03-.58.46,0,.93.2,1.42.6,0-.23.04-.45.13-.67.09-.21.35-.45.8-.71.44-.26,1.07-.39,1.87-.39.72,0,1.28.14,1.7.41.42.27.65.51.71.71.06.2.09.39.09.56.54-.37,1.02-.56,1.42-.56.52,0,.9.24,1.14.73s.37,1.05.37,1.68c0,1.69-1.46,3.75-4.38,6.19l-.04.04v4.94c.09,0,.29-.04.62-.13.33-.09.58-.13.75-.13,1.49,0,2.24.72,2.24,2.15,0,1.58-1.2,2.79-3.61,3.65v21.66c0,.29-.1.53-.3.73-.2.2-.44.3-.73.3-.32,0-.58-.1-.8-.3-.22-.2-.32-.44-.32-.73v-20.98c-.97.32-1.77.72-2.39,1.2-.62.49-1.68,1.49-3.2,3.01h1.38c.43,0,.67.21.73.64,0,.43-.19.7-.56.82l-.86.21c.4,1.43.6,2.57.6,3.4,0,.49-.03.88-.09,1.18-.06.3-.19.69-.39,1.16-.2.47-.59.84-1.16,1.1-.57.26-1.32.39-2.24.39ZM113.34,124.01v18.7h9.67v-18.7h-9.67ZM118.03,125.64c.86,0,1.6.32,2.21.95.62.63.92,1.37.92,2.24s-.29,1.55-.88,2.15c-.59.6-1.3.9-2.13.9s-1.58-.3-2.17-.9c-.59-.6-.88-1.33-.88-2.19s.28-1.6.84-2.21c.56-.62,1.25-.92,2.08-.92ZM118.11,132.99c.86,0,1.59.32,2.19.95.6.63.9,1.39.9,2.28,0,.83-.29,1.55-.88,2.15-.59.6-1.3.9-2.13.9s-1.55-.31-2.15-.92c-.6-.62-.9-1.35-.9-2.21s.29-1.6.86-2.21c.57-.62,1.27-.92,2.11-.92ZM119.34,127.51c-.36-.36-.78-.54-1.27-.54s-.9.18-1.23.54c-.33.36-.49.78-.49,1.27s.17.91.52,1.27c.34.36.76.54,1.25.54s.9-.17,1.25-.52c.34-.34.52-.76.52-1.25,0-.52-.18-.95-.54-1.31ZM132.9,128.05h-3.44c-.03.17-.1.49-.21.94-.12.46-.22.92-.3,1.4-.09.47-.13.9-.13,1.27,0,.77.18,1.35.54,1.74.36.39.97.58,1.83.58.46,0,.82-.02,1.07-.06.26-.04.54-.25.86-.62.31-.37.47-.92.47-1.63,0-.37-.04-.78-.13-1.22-.09-.44-.19-.94-.32-1.48-.13-.54-.21-.84-.24-.9ZM132.04,125.21v1.03c.34-.34.81-.82,1.4-1.44.59-.62,1.12-1.14,1.59-1.57.47-.43,1.02-.85,1.65-1.25.69-.46,1.59-.86,2.71-1.2v-2.79c-1.15.4-2.39,1.12-3.74,2.15-.26.2-.5.41-.73.62-.23.21-.45.46-.67.73-.22.27-.39.49-.52.65-.13.16-.29.42-.49.77-.2.36-.33.59-.39.69-.06.1-.2.38-.43.84-.23.46-.36.72-.39.77ZM140.42,110.3c2.84-2.26,4.26-4.07,4.26-5.42,0-.51-.09-.86-.26-1.03-.52.17-.95.49-1.29.94-.34.46-.59.9-.73,1.33-.14.43-.38.82-.71,1.16-.33.34-.77.52-1.31.52s-1-.17-1.35-.52c-.36-.34-.61-.72-.75-1.14-.14-.42-.38-.85-.71-1.29-.33-.44-.72-.75-1.18-.92-.17.09-.26.42-.26.99,0,.23.01.4.04.52.11.43.32.87.62,1.33.3.46.65.89,1.05,1.29.4.4.77.75,1.1,1.03.33.29.65.56.97.82l.52.39ZM140.72,102.73c-.37,0-.66.01-.86.04-.2.03-.41.17-.62.43-.22.26-.32.65-.32,1.16.92,1.43,1.4,2.18,1.46,2.24.2-.23.42-.53.67-.9.24-.37.44-.69.6-.97.16-.27.24-.42.24-.45-.03-.74-.1-1.19-.22-1.33-.11-.14-.43-.22-.95-.22ZM141.54,117.52v2.58c1.4-.57,2.11-1.28,2.11-2.11,0-.23-.04-.39-.11-.47-.07-.09-.28-.13-.62-.13-.29,0-.75.04-1.38.13Z"/>
      <line class="cls-4" x1="22.25" y1="167.09" x2="161.76" y2="167.09"/>
      <text class="cls-8" transform="translate(56.81 200.46)"><tspan x="0" y="0">089</tspan></text>
      <polyline class="cls-5" points="152.56 10.57 164.09 10.57 176.07 22.55 176.07 34.86"/>
    </g>
  </g>
</svg>