<?xml version="1.0" encoding="UTF-8"?>
<svg id="Ebene_2" data-name="Ebene 2" xmlns="http://www.w3.org/2000/svg" viewBox="0 0 229 229">
  <defs>
    <style>
      .cls-1 {
        fill: #d87b00;
      }

      .cls-2 {
        stroke-width: 4px;
      }

      .cls-2, .cls-3 {
        fill: none;
        stroke: #000;
        stroke-miterlimit: 10;
      }

      .cls-3 {
        stroke-width: 3px;
      }
    </style>
  </defs>
  <g id="Ebene_15_Kopie" data-name="Ebene 15 Kopie">
    <g id="Ebene_16_Kopie" data-name="Ebene 16 Kopie">
      <path d="M89.52,86.74c2.26,3.37,3.61,5.47,4.05,6.31.44.83.66,1.73.66,2.7-.14.79-.51,1.34-1.11,1.66-.6.32-1.11.49-1.52.49-2.31-.14-4.3-.88-5.96-2.22-1.71-1.39-3.06-2.51-4.05-3.36-.99-.86-2.51-2.52-4.54-4.99-2.03-2.47-3.72-5.07-5.06-7.8-.09.37-.24.94-.45,1.7-.21.76-.38,1.44-.52,2.04l-.28.9c-.37,1.57-1.64,2.36-3.81,2.36-1.34,0-2.75-.49-4.23-1.46l-.42,8.66,4.16.69c.55,0,1.48-.1,2.77-.31,1.29-.21,2.1-.31,2.43-.31,1.62,0,2.54.39,2.77,1.18.05.28.18,1.25.42,2.91h-1.66c-.18-.09-.38-.21-.59-.35-.21-.14-.41-.25-.59-.35-.19-.09-.39-.14-.62-.14-.28,0-.52.03-.73.1-.21.07-.45.18-.73.35s-.51.29-.69.38h-31.4c-.18-.09-.43-.23-.73-.42-.3-.18-.58-.32-.83-.42-.25-.09-.52-.14-.8-.14-.32,0-.69.15-1.11.45-.42.3-.79.48-1.11.52-1.8,0-2.7-.51-2.7-1.53,0-.69.5-1.28,1.49-1.77.99-.48,2.21-.73,3.64-.73.32,0,.94.07,1.84.21.9.14,1.72.25,2.46.35l1.18.21c.28,0,.63.01,1.07.03.44.02.75.03.94.03,1.15,0,2.52-.18,4.09-.55,1.99-7.25,2.98-11,2.98-11.23,0-3.1-.14-9.96-.42-20.58l-4.57-9.43c-1.02-2.13-1.62-4.78-1.8-7.97-.18-3.19-.35-5.13-.49-5.82-.65-3-1.34-4.5-2.08-4.5-.09,0-.38.03-.87.1s-.87.1-1.14.1c-.37,0-.79.01-1.25.03-.46.02-.91.05-1.35.07-.44.02-.84.05-1.21.07-.37.02-.67.06-.9.11h-.42c-.79,0-1.18-.42-1.18-1.25,0-.46.21-.81.62-1.04,3.6-2.03,6.09-3.25,7.45-3.64,1.36-.39,3.96-.59,7.8-.59h8.25c.32,0,.61.12.87.35.25.23.38.51.38.83v.14c.09.6.14,1.4.14,2.39s.06,1.9.17,2.7c.12.81.33,1.56.66,2.25.74,1.57,1.55,3.05,2.43,4.44.88,1.39,1.59,2.44,2.15,3.15.55.72,1.64,2.07,3.26,4.05.97,1.2,2.63,2.83,4.99,4.89,2.36,2.06,4.13,3.99,5.34,5.79,8.32,12.43,14.58,22.32,18.78,29.66.09.28.14.49.14.62,0,.32-.13.6-.38.83-.25.23-.54.35-.87.35-.23,0-.51-.11-.83-.35-1.06-1.06-2.52-2.38-4.37-3.95ZM49.87,50.71c0-.88.28-1.58.83-2.11.55-.53,1.27-.8,2.15-.8.42,0,.91.08,1.49.24.58.16,1.1.24,1.56.24,2.17-.23,3.49-.44,3.95-.62.46-.18.99-.72,1.59-1.59-1.9-2.4-3.49-4.99-4.78-7.76-.37-.83-.62-1.62-.76-2.36-.14-.74-.22-1.65-.24-2.74-.02-1.08-.06-1.79-.1-2.11h-.14c-.92,0-2.15-.01-3.67-.03-1.53-.02-2.63-.03-3.33-.03-2.68,0-4.55.07-5.61.21-1.06.14-2.31.51-3.74,1.11l-.07.07c.97-.14,1.59-.21,1.87-.21.79,0,1.46.28,2.01.83.23.23.45.47.66.73s.39.53.55.83c.16.3.29.53.38.69.09.16.18.45.28.87.09.42.15.67.17.76.02.09.09.39.21.9.11.51.17.79.17.83.18,1.02.35,3,.49,5.96.14,2.96.67,5.38,1.59,7.28l4.5,9.22c1.76,3.6,3.51,7.08,5.27,10.43,1.76,3.35,3.51,6.6,5.27,9.74.97,1.29,1.74,2.1,2.32,2.43.58.32,1.3.48,2.18.48.83,0,1.34-.25,1.53-.76.83-3.37,1.41-5.89,1.73-7.55-.28-.6-.76-1.59-1.46-2.98-1.8-1.02-3.47-2.19-4.99-3.53-.65-.6-1.26-1.18-1.84-1.73-.58-.55-1.16-1.14-1.73-1.77-.58-.62-1.06-1.14-1.46-1.56-.39-.42-.88-1-1.46-1.77-.58-.76-.99-1.3-1.25-1.63-.25-.32-.69-.94-1.32-1.84-.62-.9-1.03-1.48-1.21-1.73-.18-.25-.65-.94-1.39-2.04-.74-1.11-1.2-1.8-1.39-2.08-.55-.83-.83-1.66-.83-2.49ZM46.96,33.45c.51-.46,1.11-.69,1.8-.69s1.26.28,1.7.83c.44.55.66,1.2.66,1.94,0,.6-.29,1.06-.87,1.39-.58.32-1.21.48-1.91.48-.6,0-1.11-.22-1.52-.66-.42-.44-.62-.98-.62-1.63s.25-1.2.76-1.66ZM52.23,85.08c0,.09-.2.86-.59,2.29-.39,1.43-.8,2.9-1.21,4.4-.42,1.5-.65,2.32-.69,2.46,1.11.32,2.08.53,2.91.62.18,0,.45.01.8.04.35.02.59.03.73.03,1.25,0,2.47-.21,3.67-.62,1.2-.42,1.87-.62,2.01-.62l.35-6.24-7.97-2.36ZM63.04,48.14c-.6.6-1.1,1.04-1.49,1.32-.39.28-1.1.55-2.11.83-1.02.28-2.26.42-3.74.42-.46,0-1.02-.08-1.66-.24-.65-.16-1.04-.24-1.18-.24-.37,0-.55.16-.55.49s.14.72.42,1.18c.28.42.8,1.19,1.56,2.32.76,1.13,1.27,1.87,1.52,2.22.25.35.7.98,1.35,1.91.65.92,1.12,1.58,1.42,1.98.3.39.76.96,1.39,1.7.62.74,1.18,1.36,1.66,1.87s1.05,1.09,1.7,1.73c.65.65,1.34,1.29,2.08,1.94,1.71,1.57,4.29,3.25,7.73,5.03,3.44,1.78,6.13,3.36,8.07,4.75,1.15.83,2.45,1.76,3.88,2.77,1.43,1.02,2.66,1.92,3.67,2.7-2.49-4.62-7.07-11.9-13.72-21.83-1.11-1.62-2.81-3.44-5.09-5.47-2.29-2.03-3.98-3.72-5.09-5.06l-1.8-2.29ZM52.37,67.48c.18,6.75.28,11.81.28,15.18l7.69,2.29.07-2.36c-.32-.6-.64-1.17-.94-1.7-.3-.53-.65-1.14-1.04-1.84s-.83-1.49-1.32-2.39c-.49-.9-.98-1.82-1.49-2.77-.51-.95-1.05-1.99-1.63-3.12-.58-1.13-1.12-2.23-1.63-3.29ZM72.74,75.59c1.76,3.65,3.61,6.8,5.58,9.46,1.96,2.66,4.91,5.58,8.84,8.77,1.71,1.34,2.98,2.01,3.81,2.01.23,0,.42-.05.55-.14.14-.09.23-.18.28-.28l.07-.07c-.28-.79-.61-1.5-1.01-2.15s-.89-1.4-1.49-2.25c-.6-.85-1.11-1.63-1.53-2.32l-3.74-6.03-4.37-3.4c-1.71-1.29-4.02-2.68-6.93-4.16l-.07.55Z"/>
      <path d="M141.28,77.8c-.14-.23-.21-.49-.21-.76,0-.37.16-.72.49-1.04.74-.65,2.34-2.02,4.82-4.12,2.47-2.1,4.49-3.92,6.06-5.44,1.48-1.43,3.53-3.67,6.17-6.72,2.63-3.05,5.01-5.52,7.14-7.42.28-.23.79-.69,1.52-1.39.74-.69,1.24-1.16,1.49-1.39.25-.23.69-.62,1.32-1.18.62-.55,1.09-.94,1.39-1.14.3-.21.74-.53,1.32-.97.58-.44,1.1-.79,1.56-1.04.46-.25,1-.54,1.63-.87.62-.32,1.26-.62,1.91-.9,1.8-.74,3.81-1.11,6.03-1.11.28,0,.69.01,1.25.03.55.02.97.03,1.25.03.46,0,1.29-.05,2.49-.14h.14c.42,0,.76.14,1.04.42.23.32.35.62.35.9v.35c-.23,1.16-.49,2.51-.76,4.05-.28,1.55-.54,2.95-.8,4.19-.25,1.25-.59,2.59-1,4.02-.28.97-.7,2.76-1.28,5.37-.58,2.61-1.18,4.7-1.8,6.27-.62,1.57-1.56,3.21-2.81,4.92-1.48,2.08-3.06,3.63-4.75,4.64-1.69,1.02-4.08,2.08-7.17,3.19-1.85.69-4.27,1.07-7.28,1.14-3,.07-4.92.17-5.75.31-.28.05-3.79.79-10.54,2.22h-.35c-.46,0-.83-.21-1.11-.62l-3.74-5.82ZM146.83,81.34c5.64-1.2,8.89-1.87,9.77-2.01,1.34-.18,3.33-.3,5.96-.35,2.63-.05,4.8-.37,6.51-.97,1.94-.74,3.4-1.32,4.37-1.73.97-.42,2.04-1.06,3.22-1.94,1.18-.88,2.21-1.94,3.08-3.19,1.11-1.57,1.95-3.07,2.53-4.5.58-1.43,1.13-3.37,1.66-5.82.53-2.45.96-4.25,1.28-5.41.37-1.34,1.06-4.78,2.08-10.33-.19.05-.49.07-.9.07-.32,0-.76-.01-1.32-.03-.55-.02-.95-.03-1.18-.03-1.9,0-3.56.3-4.99.9-.79.37-1.56.76-2.32,1.18-.76.42-1.35.75-1.77,1-.42.26-1.05.72-1.91,1.39-.86.67-1.38,1.09-1.56,1.25-.18.16-.82.74-1.91,1.73-1.09.99-1.72,1.58-1.91,1.77-1.94,1.76-4.2,4.14-6.79,7.14-2.59,3-4.71,5.31-6.38,6.93-.97.92-4.34,3.9-10.12,8.94l2.56,4.02ZM165.96,66.44c-.28.32-.6.89-.97,1.7-.37.81-.6,1.31-.69,1.49-.14.18-.49,1.09-1.04,2.7.28-.05.74-.07,1.39-.07h.07c.37,0,.69.13.97.38.28.25.42.57.42.94v.07c0,.37-.13.68-.38.94-.25.25-.57.38-.94.38-1.76.09-2.84.14-3.26.14-.14,0-.37.02-.69.07-.32.05-.58.07-.76.07-.6,0-1.16-.14-1.66-.42-.88-.42-1.32-1.15-1.32-2.22,0-.05.01-.17.03-.38.02-.21.03-.33.03-.38.23-.79.88-1.83,1.94-3.12,2.22-2.77,4.27-5.1,6.17-7,2.63-2.68,4.94-4.78,6.93-6.31l8.66-6.38c.23-.23.53-.35.9-.35.42,0,.76.14,1.04.42.23.32.35.65.35.97,0,.42-.16.76-.49,1.04l-8.59,6.38c-.6.46-1.2.99-1.8,1.59-.6.6-1.23,1.26-1.87,1.97-.65.72-1.11,1.21-1.39,1.49l-3.05,3.88Z"/>
      <path d="M33.73,132.07c.28-.42.67-.62,1.18-.62h.07c.46,0,.83.18,1.11.55l3.6,5.55,3.33-5.55c.28-.46.67-.69,1.18-.69s.9.21,1.18.62l3.6,5.61,3.4-5.55c.28-.46.67-.69,1.18-.69s.9.21,1.18.62l3.6,5.61,3.47-5.61c.28-.46.67-.69,1.18-.69s.9.21,1.18.62l3.6,5.55,3.33-5.48c.28-.42.65-.62,1.11-.62h.07c.51,0,.88.18,1.11.55l3.67,5.61,3.4-5.55c.28-.46.67-.69,1.18-.69s.9.21,1.18.62l3.6,5.55,3.33-5.55c.28-.42.67-.62,1.18-.62s.88.21,1.11.62l4.78,7.28c.14.18.21.44.21.76,0,.51-.18.9-.55,1.18-.28.14-.53.21-.76.21-.51,0-.9-.21-1.18-.62l-3.53-5.47-3.4,5.54c-.32.46-.72.69-1.18.69-.69,0-1.13-.32-1.32-.97l-3.4-5.27-3.4,5.54c-.32.46-.72.69-1.18.69-.55,0-.97-.23-1.25-.69l-3.53-5.54-3.4,5.61c-.28.42-.67.62-1.18.62-.32,0-.58-.07-.76-.21-.23-.14-.44-.42-.62-.83l-3.33-5.2-3.4,5.54c-.32.46-.72.69-1.18.69-.55,0-.99-.23-1.32-.69l-3.53-5.47-3.4,5.54c-.32.46-.72.69-1.18.69s-.86-.23-1.18-.69l-.07-.07-3.53-5.47-3.4,5.54c-.32.46-.72.69-1.18.69-.51,0-.88-.21-1.11-.62h-.07l-3.53-5.54-3.4,5.61c-.23.42-.62.62-1.18.62-.37,0-.69-.14-.97-.42-.28-.28-.42-.6-.42-.97,0-.23.07-.46.21-.69l4.51-7.41ZM34.14,161.59c.28-.37.67-.6,1.18-.69h.07c.46,0,.83.21,1.11.62l3.6,5.48,3.33-5.55c.28-.42.67-.62,1.18-.62s.9.21,1.18.62l3.6,5.55,3.4-5.55c.28-.42.67-.62,1.18-.62s.9.21,1.18.62l3.6,5.61,3.47-5.68c.28-.42.67-.62,1.18-.62.55,0,.92.21,1.11.62l3.67,5.55,3.33-5.48c.18-.37.55-.6,1.11-.69h.07c.55,0,.92.21,1.11.62l3.67,5.61,3.4-5.61c.28-.42.67-.62,1.18-.62s.9.21,1.18.62l3.6,5.55,3.33-5.55c.28-.42.65-.62,1.11-.62h.07c.51,0,.88.21,1.11.62l4.78,7.28c.14.18.21.44.21.76,0,.51-.18.9-.55,1.18-.28.14-.55.21-.83.21-.46,0-.83-.21-1.11-.62l-3.53-5.47-3.4,5.54c-.28.42-.67.62-1.18.62-.69,0-1.13-.3-1.32-.9l-3.4-5.27-3.4,5.54c-.32.46-.72.69-1.18.69-.55,0-.97-.23-1.25-.69l-3.53-5.54-3.4,5.61c-.28.42-.67.62-1.18.62-.32,0-.58-.07-.76-.21-.28-.18-.49-.46-.62-.83l-3.33-5.2-3.4,5.54c-.32.46-.72.69-1.18.69-.55,0-.99-.23-1.32-.69l-3.53-5.47-3.4,5.54c-.32.46-.72.69-1.18.69s-.86-.23-1.18-.69l-.07-.07-3.53-5.47-3.4,5.54c-.32.46-.72.69-1.18.69-.51,0-.88-.21-1.11-.62h-.07l-3.53-5.55-3.4,5.61c-.23.42-.62.62-1.18.62-.37,0-.69-.14-.97-.42-.28-.28-.42-.6-.42-.97,0-.23.07-.46.21-.69l4.51-7.42ZM34.28,190.77c.23-.46.6-.69,1.11-.69h.07c.46,0,.83.21,1.11.62l3.6,5.47,3.33-5.54c.28-.42.67-.62,1.18-.62s.9.18,1.18.55l3.6,5.61,3.4-5.54c.28-.42.67-.62,1.18-.62s.9.18,1.18.55l3.6,5.61,3.47-5.61c.28-.42.67-.62,1.18-.62s.9.18,1.18.55l3.6,5.61,3.33-5.47c.32-.46.69-.69,1.11-.69h.07c.51,0,.88.21,1.11.62l3.67,5.61,3.4-5.61c.28-.42.67-.62,1.18-.62s.9.18,1.18.55l3.6,5.54,3.33-5.47c.28-.42.67-.65,1.18-.69.55,0,.92.21,1.11.62l4.78,7.35c.14.18.21.44.21.76,0,.46-.18.83-.55,1.11-.37.18-.62.28-.76.28-.46,0-.86-.21-1.18-.62l-3.53-5.54-3.4,5.61c-.28.42-.67.62-1.18.62-.69,0-1.13-.32-1.32-.97l-3.4-5.27-3.4,5.61c-.28.42-.67.62-1.18.62-.6,0-1.02-.23-1.25-.69l-3.53-5.47-3.4,5.54c-.32.46-.72.69-1.18.69-.23,0-.49-.07-.76-.21-.28-.23-.49-.51-.62-.83l-3.33-5.27-3.4,5.61c-.28.42-.67.62-1.18.62-.6,0-1.04-.21-1.32-.62l-3.53-5.54-3.4,5.61c-.28.42-.67.62-1.18.62s-.9-.21-1.18-.62c0-.05-.02-.07-.07-.07l-3.53-5.54-3.4,5.61c-.28.42-.67.62-1.18.62s-.88-.21-1.11-.62h-.07l-3.53-5.47-3.4,5.54c-.23.46-.62.69-1.18.69-.37,0-.69-.14-.97-.42-.28-.28-.42-.6-.42-.97,0-.28.07-.51.21-.69l4.57-7.42Z"/>
      <path class="cls-1" d="M169.67,186.06c-4.21,0-6.31-2.05-6.31-6.17,0-1.39.32-3.23.97-5.54l-1.39-.28c-.6-.18-.9-.62-.9-1.32s.39-1.08,1.18-1.18h3.6c.37-.46.83-1.16,1.39-2.08v-28.14c-.05-.69-.16-1.36-.35-2.01-.18-.65-.54-1.43-1.07-2.36-.53-.92-1.42-1.67-2.67-2.25-1.25-.58-2.8-.87-4.64-.87-2.45,0-4.59.69-6.41,2.08-1.83,1.39-2.74,3.14-2.74,5.27v23.56h7.49c.92,0,1.39.46,1.39,1.39v32.92c0,.88-.46,1.32-1.39,1.32h-18.37c-.37,0-.69-.13-.97-.38s-.42-.57-.42-.94v-32.92c0-.42.14-.75.42-1,.28-.25.6-.38.97-.38h8.18v-23.56c0-2.91,1.18-5.33,3.53-7.24,2.36-1.92,5.13-2.88,8.32-2.88.46,0,.99.03,1.59.1.6.07,1.53.29,2.77.66,1.25.37,2.34.89,3.29,1.56.95.67,1.81,1.7,2.6,3.08.79,1.39,1.2,3.01,1.25,4.85v23.01c1.25-2.22,3.04-4.13,5.37-5.75,2.33-1.62,4.49-2.73,6.48-3.33v-8.32c-.42-.32-.9-.73-1.46-1.21-.55-.49-1.34-1.24-2.36-2.25-1.02-1.02-1.86-2.12-2.53-3.33-.67-1.2-1.01-2.33-1.01-3.39,0-1.25.25-2.18.76-2.81.51-.62,1.06-.94,1.66-.94.74,0,1.5.32,2.29.97,0-.37.07-.73.21-1.07.14-.35.56-.73,1.28-1.14.72-.42,1.72-.62,3.01-.62,1.15,0,2.07.22,2.74.66.67.44,1.05.82,1.14,1.14.09.32.14.62.14.9.88-.6,1.64-.9,2.29-.9.83,0,1.44.39,1.84,1.18s.59,1.69.59,2.7c0,2.73-2.36,6.05-7.07,9.98l-.07.07v7.97c.14,0,.47-.07,1.01-.21.53-.14.94-.21,1.21-.21,2.4,0,3.6,1.16,3.6,3.47,0,2.54-1.94,4.5-5.82,5.89v34.93c0,.46-.16.86-.49,1.18-.32.32-.72.49-1.18.49-.51,0-.94-.16-1.28-.49-.35-.32-.52-.71-.52-1.18v-33.82c-1.57.51-2.85,1.16-3.85,1.94-.99.79-2.71,2.4-5.16,4.85h2.22c.69,0,1.09.35,1.18,1.04,0,.69-.3,1.13-.9,1.32l-1.39.35c.65,2.31.97,4.14.97,5.47,0,.79-.05,1.42-.14,1.91-.09.48-.3,1.11-.62,1.87-.32.76-.95,1.35-1.87,1.77-.92.42-2.13.62-3.6.62ZM140.83,167.55v30.15h15.59v-30.15h-15.59ZM148.39,170.19c1.39,0,2.57.51,3.57,1.53.99,1.02,1.49,2.22,1.49,3.6s-.47,2.5-1.42,3.47c-.95.97-2.09,1.46-3.43,1.46s-2.55-.49-3.5-1.46c-.95-.97-1.42-2.15-1.42-3.53s.45-2.57,1.35-3.57c.9-.99,2.02-1.49,3.36-1.49ZM148.53,182.04c1.39,0,2.56.51,3.53,1.53.97,1.02,1.46,2.24,1.46,3.67,0,1.34-.47,2.5-1.42,3.47-.95.97-2.09,1.45-3.43,1.45s-2.49-.49-3.47-1.49c-.97-.99-1.46-2.18-1.46-3.57s.46-2.58,1.39-3.57c.92-.99,2.06-1.49,3.4-1.49ZM150.5,173.2c-.58-.58-1.26-.87-2.04-.87s-1.44.29-1.98.87c-.53.58-.8,1.26-.8,2.04s.28,1.47.83,2.04c.55.58,1.22.87,2.01.87s1.46-.28,2.01-.83c.55-.55.83-1.22.83-2.01,0-.83-.29-1.54-.87-2.11ZM172.37,174.07h-5.54c-.05.28-.16.79-.35,1.52-.19.74-.35,1.49-.49,2.25-.14.76-.21,1.44-.21,2.04,0,1.25.29,2.18.87,2.81.58.62,1.56.94,2.95.94.74,0,1.32-.03,1.73-.1.42-.07.88-.4,1.39-1.01.51-.6.76-1.48.76-2.63,0-.6-.07-1.26-.21-1.97-.14-.72-.31-1.51-.52-2.39-.21-.88-.34-1.36-.38-1.45ZM170.98,169.49v1.66c.55-.55,1.3-1.33,2.25-2.32.95-.99,1.8-1.84,2.56-2.53.76-.69,1.65-1.36,2.67-2.01,1.11-.74,2.56-1.39,4.37-1.94v-4.5c-1.85.65-3.86,1.8-6.03,3.47-.42.32-.81.66-1.18,1-.37.35-.73.74-1.07,1.18-.35.44-.62.79-.83,1.04-.21.25-.47.67-.8,1.25-.32.58-.53.95-.62,1.11-.09.16-.32.61-.69,1.35-.37.74-.58,1.16-.62,1.25ZM184.5,145.44c4.57-3.65,6.86-6.56,6.86-8.73,0-.83-.14-1.39-.42-1.66-.83.28-1.52.79-2.08,1.52-.55.74-.95,1.46-1.18,2.15-.23.69-.61,1.32-1.14,1.87-.53.55-1.24.83-2.11.83s-1.61-.28-2.18-.83c-.58-.55-.98-1.17-1.21-1.84-.23-.67-.61-1.36-1.14-2.08-.53-.71-1.17-1.21-1.91-1.49-.28.14-.42.67-.42,1.59,0,.37.02.65.07.83.18.69.52,1.41,1.01,2.15.49.74,1.05,1.43,1.7,2.08.65.65,1.24,1.2,1.77,1.66.53.46,1.05.9,1.56,1.32l.83.62ZM184.98,133.24c-.6,0-1.06.02-1.39.07-.32.05-.66.28-1,.69-.35.42-.52,1.04-.52,1.87,1.48,2.31,2.26,3.51,2.36,3.6.32-.37.68-.85,1.07-1.46.39-.6.72-1.12.97-1.56.25-.44.38-.68.38-.73-.05-1.2-.16-1.92-.35-2.15-.18-.23-.69-.35-1.53-.35ZM186.3,157.09v4.16c2.26-.92,3.4-2.06,3.4-3.4,0-.37-.06-.62-.17-.76-.12-.14-.45-.21-1.01-.21-.46,0-1.2.07-2.22.21Z"/>
      <path class="cls-2" d="M189.45,7.99h14c.27,0,.52.11.71.29l14.39,14.39c.19.19.29.44.29.71v10.02"/>
      <rect class="cls-3" x="17" y="17" width="92.5" height="92.5" rx="10" ry="10"/>
      <rect class="cls-3" x="17" y="119.5" width="92.5" height="92.5" rx="10" ry="10"/>
      <rect class="cls-3" x="119.5" y="119.5" width="92.5" height="92.5" rx="10" ry="10"/>
      <path class="cls-2" d="M186.02,2H22C11,2,2,11,2,22v185c0,11,9,20,20,20h185c11,0,20-9,20-20V35.05c0-.55-.44-.98-.98-.99-21.23-.41-38.36-14.09-39-31.08-.02-.54-.45-.98-.99-.98Z"/>
      <path class="cls-3" d="M174.64,17h-45.14c-5.52,0-10,4.48-10,10v72.5c0,5.52,4.48,10,10,10h72.5c5.52,0,10-4.48,10-10v-54.29c0-.46-.32-.86-.77-.97-16.45-3.94-29.68-13.88-35.7-26.67-.16-.35-.51-.57-.9-.57Z"/>
    </g>
  </g>
</svg>